<!-- https://codepen.io/jamesdoesdesign/pen/WVeMaP -->
<svg height="50" viewBox="0 0 20 20" width="50"
  xmlns="http://www.w3.org/2000/svg"
  xmlns:xlink="http://www.w3.org/1999/xlink">
  <style>
    #locate-circle-0{ fill:#00d7a7; }
    #locate-circle-1{ fill:#00d7a7; }
    #locate-circle-2{ fill:#00d7a7; }
  </style>
  <circle id="locate-circle-2" cx="10" cy="10" r="2" style="fill:#00d7a7"></circle>
  <circle id="locate-circle-1" cx="10" cy="10" r="2" style="fill:#00d7a7"></circle>
  <circle id="locate-circle-0" cx="10" cy="10" r="2" style="fill:#00d7a7"></circle>
  <path d="M10.99,9.63c1.12-0.98,2.8-2.9,2.86-5.64c0.04-2.16-1.67-3.98-3.83-3.99C7.89-0.01,6.15,1.72,6.15,3.85c0,2.82,1.72,4.79,2.86,5.78C9.58,10.12,10.42,10.12,10.99,9.63z M9.88,2.28c0.9-0.07,1.64,0.67,1.57,1.57c-0.06,0.71-0.63,1.28-1.34,1.34c-0.9,0.07-1.64-0.67-1.57-1.57C8.6,2.9,9.17,2.33,9.88,2.28z" style="fill:#1a2138;"></path>
  <animate attributeName="opacity" attributeType="CSS" begin="0s" dur="2s" keyTimes="0; 1" repeatCount="indefinite" values="0.7; 0;" xlink:href="#locate-circle-1"></animate>
  <animate attributeName="opacity" attributeType="CSS" dur="2s" begin="2s" keyTimes="0; 1" repeatCount="indefinite" values="0.4;0;" xlink:href="#locate-circle-2"></animate>
  <animate attributeName="r" begin="0s" dur="2s" keyTimes="0; 1" repeatCount="indefinite" values="2; 5" xlink:href="#locate-circle-1"></animate>
  <animate attributeName="r" begin="2s" dur="2s" keyTimes="0; 1" repeatCount="indefinite" values="2; 11" xlink:href="#locate-circle-2"></animate>
</svg>
