<svg viewBox="0 0 426 128" version="1.1"
  xmlns="http://www.w3.org/2000/svg"
  xmlns:xlink="http://www.w3.org/1999/xlink" xml:space="preserve"
  xmlns:serif="http://www.serif.com/">
  <g transform="matrix(1,0,0,1,246.065,48.1172)">
    <path d="M0,30.745L0,21.228L23.588,21.228L23.588,8.784L0,8.784L0,0L25.215,0L25.215,-12.77L-0.009,-12.77L-0.009,43.515L25.865,43.515L25.865,30.745L0,30.745Z" style="fill:rgb(0,215,167);fill-rule:nonzero;" />
  </g>
  <g transform="matrix(1,0,0,1,0,-0.58)">
    <rect x="231.1" y="35.927" width="14.957" height="56.285" style="fill:rgb(26,34,56);" />
  </g>
  <g transform="matrix(1,0,0,1,374.007,91.632)">
    <path d="M0,-56.285L0,-31.315C0,-26.272 0.895,-18.382 0.895,-18.382L0.569,-18.382C0.569,-18.382 -2.603,-26.353 -4.311,-30.095L-16.349,-56.285L-21.798,-56.285L-21.798,-37.001C-21.004,-34.812 -18.927,-29.166 -17.568,-26.191L-5.531,0L13.989,0L13.989,-56.285L0,-56.285Z" style="fill:rgb(0,215,167);fill-rule:nonzero;" />
  </g>
  <g transform="matrix(1,0,0,1,299.585,48.1494)">
    <path d="M0,30.745L0,21.228L23.587,21.228L23.587,8.784L0,8.784L0,0L25.214,0L25.214,-12.77L-0.009,-12.77L-0.009,43.515L25.864,43.515L25.864,30.745L0,30.745Z" style="fill:rgb(0,215,167);fill-rule:nonzero;" />
  </g>
  <g transform="matrix(1,0,0,1,0,-0.516)">
    <rect x="284.619" y="35.895" width="14.957" height="56.285" style="fill:rgb(26,34,56);" />
  </g>
  <g transform="matrix(1,0,0,1,63.3131,47.2607)">
    <path d="M0,32.579L-11.051,32.579L-11.051,21.938L0,21.938C4.419,21.938 6.384,23.984 6.384,27.177C6.384,30.451 4.419,32.579 0,32.579M-11.051,0L-1.638,0C2.701,0 4.665,1.801 4.665,4.83C4.665,7.94 2.701,9.905 -1.638,9.905L-11.051,9.905L-11.051,0ZM10.887,15.143L10.887,14.816C14.325,13.507 19.728,9.659 19.728,2.62C19.728,-7.203 10.396,-12.033 -2.292,-12.033L-11.066,-12.018L-11.066,44.541L-0.082,44.612C13.015,44.612 21.692,38.145 21.692,28.323C21.692,20.137 15.88,16.372 10.887,15.143" style="fill:rgb(0,215,167);fill-rule:nonzero;" />
  </g>
  <g transform="matrix(1,0,0,1,143.095,55.3313)">
    <path d="M0,16.316C-0.755,20.009 -3.6,24.506 -9.11,24.506C-17.081,24.506 -20.741,16.617 -20.741,7.996C-20.741,-0.626 -17.081,-7.865 -9.11,-7.865C-3.417,-7.865 0.569,-3.88 0.894,1.082L14.884,-7.784C10.411,-16.243 1.708,-20.96 -9.11,-20.96C-24.076,-20.96 -36.032,-10.224 -36.032,7.996C-36.032,26.214 -25.947,37.276 -12.607,37.276C-4.312,37.276 -0.163,33.291 1.871,30.037L2.196,30.037L1.382,36.3L14.152,36.3L14.152,16.316L0,16.316Z" style="fill:rgb(0,215,167);fill-rule:nonzero;" />
  </g>
  <g transform="matrix(1,0,0,1,129.838,59.5273)">
    <path d="M0,12.12L27.41,12.12L27.41,0L0,0L0,12.12Z" style="fill:rgb(26,34,56);fill-rule:nonzero;" />
  </g>
  <g transform="matrix(1,0,0,1,208.326,58.0403)">
    <path d="M0,10.898C5.937,8.133 10.167,2.765 10.167,-4.881C10.167,-16.593 1.871,-22.693 -11.062,-22.693L-21.716,-22.693L-21.716,-10.412L-11.55,-10.412C-6.995,-10.412 -4.88,-8.134 -4.88,-4.881C-4.88,-1.627 -6.995,0.976 -11.55,0.976L-21.716,0.976L-21.716,13.094L-14.722,13.094L-4.88,33.591L11.062,33.591L0,10.898Z" style="fill:rgb(0,215,167);fill-rule:nonzero;" />
  </g>
  <g transform="matrix(1,0,0,1,0,-0.58)">
    <rect x="338.138" y="35.927" width="14.071" height="56.285" style="fill:rgb(26,34,56);" />
  </g>
  <g transform="matrix(0,-1,-1,0,97.4375,77.4729)">
    <path d="M-7.149,-7.15C-11.424,-7.15 -14.159,-3.856 -14.159,-0.001C-14.159,3.854 -11.424,7.149 -7.149,7.149C-2.874,7.149 -0.14,3.854 -0.14,-0.001C-0.14,-3.856 -2.874,-7.15 -7.149,-7.15" style="fill:rgb(26,34,56);fill-rule:nonzero;" />
  </g>
  <g transform="matrix(1,0,0,1,186.61,79.3498)">
    <path d="M0,12.282L0,-44.003L-14.966,-44.003L-14.966,12.282L0,12.282Z" style="fill:rgb(26,34,56);fill-rule:nonzero;" />
  </g>
  <g transform="matrix(-1,0,0,1,89.447,-0.514)">
    <rect x="37.2" y="35.757" width="15.047" height="56.559" style="fill:rgb(26,34,56);" />
  </g>
</svg>
