<svg viewBox="0 0 68 57" version="1.1"
  xmlns="http://www.w3.org/2000/svg"
  xmlns:xlink="http://www.w3.org/1999/xlink" xml:space="preserve"
  xmlns:serif="http://www.serif.com/">
  <g transform="matrix(1,0,0,1,26.1131,12.033)">
    <path d="M0,32.579L-11.051,32.579L-11.051,21.938L0,21.938C4.419,21.938 6.384,23.984 6.384,27.177C6.384,30.451 4.419,32.579 0,32.579M-11.051,0L-1.638,0C2.701,0 4.665,1.801 4.665,4.83C4.665,7.94 2.701,9.905 -1.638,9.905L-11.051,9.905L-11.051,0ZM10.887,15.143L10.887,14.816C14.325,13.507 19.728,9.659 19.728,2.62C19.728,-7.203 10.396,-12.033 -2.292,-12.033L-11.066,-12.018L-11.066,44.541L-0.082,44.612C13.015,44.612 21.692,38.145 21.692,28.323C21.692,20.137 15.88,16.372 10.887,15.143" style="fill:rgb(0,215,167);" />
  </g>
  <g transform="matrix(0,-1,-1,0,60.2375,42.2452)">
    <path d="M-7.149,-7.15C-11.424,-7.15 -14.159,-3.856 -14.159,-0.001C-14.159,3.854 -11.424,7.149 -7.149,7.149C-2.874,7.149 -0.14,3.854 -0.14,-0.001C-0.14,-3.856 -2.874,-7.15 -7.149,-7.15" style="fill:rgb(26,34,56);" />
  </g>
  <g transform="matrix(-1,0,0,1,52.247,-35.7417)">
    <rect x="37.2" y="35.757" width="15.047" height="56.559" style="fill:rgb(26,34,56);" />
  </g>
</svg>
