<svg viewBox="0 0 781 175" version="1.1"
  xmlns="http://www.w3.org/2000/svg"
  xmlns:xlink="http://www.w3.org/1999/xlink" xml:space="preserve"
  xmlns:serif="http://www.serif.com/">
  <g transform="matrix(0.24,0,0,0.24,-23.5935,-25.3203)">
    <g id="CMYK" transform="matrix(4.16667,0,0,4.16667,0,0)">
      <g transform="matrix(1,0,0,1,319.129,148.395)">
        <path d="M0,51.285C-14.311,51.285 -24.865,40.021 -24.865,25.715C-24.865,11.547 -14.381,0 0.213,0C9.208,0 14.59,3.185 19.551,7.863L15.724,11.969C11.546,8.004 6.87,5.172 0.141,5.172C-10.839,5.172 -19.055,14.025 -19.055,25.57C-19.055,37.119 -10.768,46.113 0.141,46.113C6.94,46.113 11.404,43.494 16.149,38.959L19.834,42.572C14.661,47.816 8.996,51.285 0,51.285" style="fill:rgb(31,65,154);fill-rule:nonzero;" />
      </g>
      <g transform="matrix(1,0,0,1,373.943,182.61)">
        <path d="M0,-4.112C-0.565,-10.768 -4.391,-16.575 -11.688,-16.575C-18.063,-16.575 -22.878,-11.266 -23.587,-4.112L0,-4.112ZM-10.695,12.324C-5.666,12.324 -2.125,10.269 0.851,7.152L4.251,10.199C0.566,14.306 -3.895,17.07 -10.838,17.07C-20.896,17.07 -29.113,9.349 -29.113,-2.057C-29.113,-12.68 -21.676,-21.182 -11.547,-21.182C-0.708,-21.182 5.527,-12.538 5.527,-1.774C5.527,-1.274 5.527,-0.712 5.456,-0.071L-23.587,-0.071C-22.808,7.861 -17.142,12.324 -10.695,12.324" style="fill:rgb(31,65,154);fill-rule:nonzero;" />
      </g>
      <g transform="matrix(1,0,0,1,394.479,161.428)">
        <path d="M0,37.402L-5.455,37.402L-5.455,0.781L0,0.781L0,7.156C2.409,3.187 6.233,0 12.539,0C21.393,0 26.565,5.953 26.565,14.662L26.565,37.402L21.109,37.402L21.109,16.007C21.109,9.211 17.425,4.959 10.979,4.959C4.677,4.959 0,9.564 0,16.433L0,37.402Z" style="fill:rgb(31,65,154);fill-rule:nonzero;" />
      </g>
      <g transform="matrix(1,0,0,1,440.019,162.213)">
        <path d="M0,26.203C0,30.668 2.48,32.295 6.161,32.295C8.005,32.295 9.562,31.941 11.475,31.021L11.475,35.695C9.562,36.689 7.507,37.256 4.889,37.256C-0.992,37.256 -5.456,34.351 -5.456,26.912L-5.456,4.81L-10.554,4.81L-10.554,-0.004L-5.456,-0.004L-5.456,-11.053L0,-11.053L0,-0.004L11.617,-0.004L11.617,4.81L0,4.81L0,26.203Z" style="fill:rgb(31,65,154);fill-rule:nonzero;" />
      </g>
      <g transform="matrix(1,0,0,1,466.718,161.287)">
        <path d="M0,37.543L-5.455,37.543L-5.455,0.922L0,0.922L0,10.482C2.691,4.391 8.006,0 14.944,0.285L14.944,6.162L14.523,6.162C6.518,6.162 0,11.9 0,22.949L0,37.543Z" style="fill:rgb(31,65,154);fill-rule:nonzero;" />
      </g>
      <g transform="matrix(1,0,0,1,490.944,173.401)">
        <path d="M0,14.519C0,19.195 4.252,21.886 9.209,21.886C15.941,21.886 21.466,17.779 21.466,11.972L21.466,8.429C18.774,7.65 15.162,6.869 10.696,6.869C3.826,6.869 0,9.843 0,14.519M-0.637,-4.18L-2.266,-8.643C1.771,-10.483 5.739,-11.688 11.053,-11.688C21.04,-11.688 26.638,-6.588 26.638,3.046L26.638,25.429L21.393,25.429L21.393,19.904C18.844,23.232 14.595,26.207 8.146,26.207C1.349,26.207 -5.521,22.384 -5.521,14.732C-5.521,6.941 0.851,2.831 10.133,2.831C14.807,2.831 18.135,3.47 21.393,4.392L21.393,3.115C21.393,-3.471 17.355,-6.872 10.485,-6.872C6.165,-6.872 2.764,-5.741 -0.637,-4.18" style="fill:rgb(31,65,154);fill-rule:nonzero;" />
      </g>
      <g transform="matrix(1,0,0,1,0,120.947)">
        <rect x="529.686" y="26.17" width="5.452" height="51.713" style="fill:rgb(31,65,154);" />
      </g>
      <g transform="matrix(1,0,0,1,604.338,163.203)">
        <path d="M0,21.67C0,16.219 -4.535,13.102 -13.176,13.102L-28.83,13.102L-28.83,30.596L-12.184,30.596C-4.676,30.596 0,27.268 0,21.67M-2.764,-0.783C-2.764,-5.74 -6.658,-8.932 -13.742,-8.932L-28.83,-8.932L-28.83,8.141L-14.168,8.141C-7.436,8.141 -2.764,5.096 -2.764,-0.783M2.902,-1.562C2.902,4.955 -1.063,8.283 -4.959,9.984C0.92,11.756 5.668,15.156 5.668,22.025C5.668,30.596 -1.486,35.627 -12.324,35.627L-34.354,35.627L-34.354,-13.957L-13.244,-13.957C-3.473,-13.957 2.902,-9.139 2.902,-1.562" style="fill:rgb(31,65,154);fill-rule:nonzero;" />
      </g>
      <g transform="matrix(1,0,0,1,622.957,173.401)">
        <path d="M0,14.519C0,19.195 4.248,21.886 9.209,21.886C15.938,21.886 21.463,17.779 21.463,11.972L21.463,8.429C18.771,7.65 15.16,6.869 10.697,6.869C3.826,6.869 0,9.843 0,14.519M-0.635,-4.18L-2.266,-8.643C1.771,-10.483 5.736,-11.688 11.049,-11.688C21.037,-11.688 26.635,-6.588 26.635,3.046L26.635,25.429L21.393,25.429L21.393,19.904C18.844,23.232 14.594,26.207 8.146,26.207C1.346,26.207 -5.523,22.384 -5.523,14.732C-5.523,6.941 0.852,2.831 10.129,2.831C14.803,2.831 18.135,3.47 21.393,4.392L21.393,3.115C21.393,-3.471 17.355,-6.872 10.482,-6.872C6.16,-6.872 2.762,-5.741 -0.635,-4.18" style="fill:rgb(31,65,154);fill-rule:nonzero;" />
      </g>
      <g transform="matrix(1,0,0,1,0,120.947)">
        <rect x="661.699" y="26.17" width="5.451" height="51.713" style="fill:rgb(31,65,154);" />
      </g>
      <g transform="matrix(1,0,0,1,687.193,162.213)">
        <path d="M0,26.203C0,30.668 2.479,32.295 6.162,32.295C8.006,32.295 9.563,31.941 11.477,31.021L11.477,35.695C9.563,36.689 7.508,37.256 4.889,37.256C-0.992,37.256 -5.453,34.351 -5.453,26.912L-5.453,4.81L-10.553,4.81L-10.553,-0.004L-5.453,-0.004L-5.453,-11.053L0,-11.053L0,-0.004L11.617,-0.004L11.617,4.81L0,4.81L0,26.203Z" style="fill:rgb(31,65,154);fill-rule:nonzero;" />
      </g>
      <g transform="matrix(1,0,0,1,0,122.016)">
        <path d="M708.932,40.193L714.389,40.193L714.389,76.816L708.932,76.816L708.932,40.193ZM708.582,26.168L714.814,26.168L714.814,32.188L708.582,32.188L708.582,26.168Z" style="fill:rgb(31,65,154);fill-rule:nonzero;" />
      </g>
      <g transform="matrix(1,0,0,1,743.568,161.428)">
        <path d="M0,38.252C-10.697,38.252 -18.773,29.539 -18.773,19.197C-18.773,8.785 -10.697,0 0,0C6.941,0 11.264,2.904 14.662,6.516L11.049,10.342C8.146,7.299 4.889,4.816 -0.072,4.816C-7.51,4.816 -13.176,11.121 -13.176,19.057C-13.176,27.061 -7.367,33.363 0.285,33.363C4.957,33.363 8.568,31.025 11.475,27.908L14.943,31.168C11.264,35.277 6.871,38.252 0,38.252" style="fill:rgb(31,65,154);fill-rule:nonzero;" />
      </g>
      <g transform="matrix(-1,0,0,1,294.263,87.0633)">
        <path d="M-20.096,-61.743L0,-61.743L0,0C-6.53,-1.237 -13.238,-2.429 -20.096,-3.561L-20.096,-61.743Z" style="fill:rgb(93,168,221);fill-rule:nonzero;" />
      </g>
      <g transform="matrix(1,0,0,1,437.197,36.5236)">
        <path d="M0,27.158L16.442,27.158L16.442,10.196L0,10.196L0,-7.68L-19.836,-7.68L-19.836,10.196L-28.185,10.196L-28.185,27.158L-19.836,27.158L-19.836,34.838C-13.287,34.33 -6.68,33.862 0,33.429L0,27.158Z" style="fill:rgb(93,168,221);fill-rule:nonzero;" />
      </g>
      <g transform="matrix(1,0,0,1,499.44,52.382)">
        <path d="M0,8.951C4.868,8.951 8.663,11.001 11.222,14.461C17.823,14.321 24.455,14.218 31.124,14.151C26.521,1.974 16.388,-6.966 0,-6.966C-15.49,-6.966 -27.408,2.563 -32.23,15.917C-25.464,15.604 -18.645,15.331 -11.779,15.098C-9.104,11.22 -5.105,8.951 0,8.951" style="fill:rgb(93,168,221);fill-rule:nonzero;" />
      </g>
      <g transform="matrix(1,0,0,1,583.621,44.8948)">
        <path d="M0,21.865C1.789,21.479 3.689,21.267 5.729,21.267L6.775,21.267L6.775,0.519C-4.967,0 -11.496,6.26 -15.539,15.918L-15.539,1.824L-35.371,1.824L-35.371,21.544C-35.009,21.544 -34.648,21.541 -34.286,21.541C-22.77,21.541 -11.336,21.652 0,21.865" style="fill:rgb(93,168,221);fill-rule:nonzero;" />
      </g>
      <g transform="matrix(1,0,0,1,643.9,47.1171)">
        <path d="M0,19.045L1.041,19.045L1.041,-1.703C-10.697,-2.223 -17.225,4.038 -21.268,13.693L-21.268,-0.398L-41.102,-0.398L-41.102,20.104C-30.789,20.406 -20.574,20.793 -10.48,21.268C-7.506,19.789 -3.992,19.045 0,19.045" style="fill:rgb(93,168,221);fill-rule:nonzero;" />
      </g>
      <g transform="matrix(1,0,0,1,687.877,59.105)">
        <path d="M0,2.228C7.344,2.228 12.258,6.868 14.139,14.01C20.627,14.608 27.037,15.247 33.365,15.917C30.713,-0.369 20.012,-13.689 0,-13.689C-15.973,-13.689 -28.141,-3.55 -32.643,10.459C-26.232,10.848 -19.881,11.272 -13.582,11.729C-11.105,5.844 -6.439,2.228 0,2.228" style="fill:rgb(93,168,221);fill-rule:nonzero;" />
      </g>
      <g transform="matrix(1,0,0,1,750.777,54.1779)">
        <path d="M0,24.119L0,23.857C0,14.332 7.307,7.677 16.963,7.677C26.617,7.677 34.051,14.332 34.051,23.857L34.051,24.119C34.051,25.952 33.775,27.676 33.26,29.277C40.219,30.428 47.014,31.629 53.625,32.885L53.625,-7.461L33.795,-7.461L33.795,1.675C28.449,-4.197 22.053,-8.766 11.221,-8.766C-4.32,-8.766 -18.838,2.277 -19.746,21.933C-13.059,22.697 -6.467,23.508 0.014,24.36C0.014,24.276 0,24.203 0,24.119" style="fill:rgb(93,168,221);fill-rule:nonzero;" />
      </g>
      <g transform="matrix(1,0,0,1,360.141,62.3113)">
        <path d="M0,1.508C1.309,0.883 4.217,0.275 5.645,0.275C7.075,0.275 9.979,0.883 11.29,1.508C16.338,3.909 18.619,7.496 19.275,12.501C25.561,11.839 31.937,11.22 38.382,10.634C36.159,0.46 30.062,-8.122 20.652,-12.905C16.328,-15.1 11.313,-16.905 5.645,-16.905C-0.024,-16.905 -5.043,-15.1 -9.359,-12.905C-21.093,-6.946 -27.684,4.92 -28.017,18.413C-21.539,17.467 -14.93,16.562 -8.21,15.7C-8.17,8.935 -6.071,4.396 0,1.508" style="fill:rgb(93,168,221);fill-rule:nonzero;" />
      </g>
      <g transform="matrix(0,-1,-1,0,320.892,90.0297)">
        <path d="M-26.629,6.533L6.532,6.533C5.394,13.391 4.209,20.099 2.965,26.629L-26.629,26.629L-26.629,6.533Z" style="fill:rgb(31,65,154);fill-rule:nonzero;" />
      </g>
      <g transform="matrix(1,0,0,1,437.718,69.949)">
        <path d="M0,47.885C6.653,47.885 11.483,46.319 15.658,43.834L15.658,27.918C12.785,29.482 9.524,30.4 5.874,30.4C1.435,30.4 -0.522,28.181 -0.522,23.613L-0.522,0C-7.2,0.434 -13.811,0.907 -20.356,1.414L-20.356,26.869C-20.356,43.059 -12.135,47.885 0,47.885" style="fill:rgb(31,65,154);fill-rule:nonzero;" />
      </g>
      <g transform="matrix(1,0,0,1,464.861,102.675)">
        <path d="M0,-20.595C0,0.804 15.529,15.547 36.538,15.547C49.192,15.547 58.588,10.59 65.112,2.5L53.761,-7.55C48.279,-2.457 43.453,-0.371 36.801,-0.371C27.927,-0.371 21.659,-5.068 19.704,-14.068L68.375,-14.068C68.506,-15.901 68.637,-17.724 68.637,-19.29C68.637,-25.209 67.657,-30.966 65.703,-36.142C59.037,-36.077 52.402,-35.974 45.801,-35.833C47.632,-33.361 48.832,-30.167 49.323,-26.469L19.445,-26.469C20.04,-29.876 21.175,-32.833 22.805,-35.197C15.937,-34.959 9.115,-34.691 2.349,-34.378C0.834,-30.188 0,-25.628 0,-20.855L0,-20.595Z" style="fill:rgb(31,65,154);fill-rule:nonzero;" />
      </g>
      <g transform="matrix(1,0,0,1,568.082,66.4372)">
        <path d="M0,50.221L0,24.385C0,10.27 5.793,2.423 15.539,0.319C4.203,0.108 -7.23,0 -18.747,0L-19.832,0L-19.832,50.221L0,50.221Z" style="fill:rgb(31,65,154);fill-rule:nonzero;" />
      </g>
      <g transform="matrix(1,0,0,1,622.627,67.2192)">
        <path d="M0,49.439L0,23.603C0,11.957 3.943,4.58 10.793,1.164C0.697,0.691 -9.518,0.302 -19.83,0L-19.83,49.439L0,49.439Z" style="fill:rgb(31,65,154);fill-rule:nonzero;" />
      </g>
      <g transform="matrix(1,0,0,1,653.301,105.708)">
        <path d="M0,-23.628C0,-2.229 15.523,12.514 36.537,12.514C49.191,12.514 58.586,7.557 65.111,-0.533L53.758,-10.583C48.279,-5.49 43.453,-3.404 36.795,-3.404C27.926,-3.404 21.658,-8.101 19.703,-17.101L68.373,-17.101C68.498,-18.934 68.637,-20.757 68.637,-22.323C68.637,-25.167 68.393,-27.958 67.943,-30.685C61.621,-31.36 55.209,-31.995 48.715,-32.595C48.979,-31.607 49.178,-30.579 49.322,-29.502L19.439,-29.502C19.781,-31.451 20.305,-33.245 20.994,-34.872C14.701,-35.332 8.344,-35.757 1.93,-36.142C0.693,-32.302 0,-28.189 0,-23.888L0,-23.628Z" style="fill:rgb(31,65,154);fill-rule:nonzero;" />
      </g>
      <g transform="matrix(1,0,0,1,730.947,135.605)">
        <path d="M0,-57.308C0,-36.56 14.742,-24.686 31.053,-24.686C41.621,-24.686 48.016,-28.996 53.887,-36.041L53.887,-32.646C53.887,-20.119 47.496,-13.599 33.924,-13.599C24.66,-13.599 17.482,-15.946 10.299,-19.99L3.525,-5.115C12.389,-0.417 23.094,2.186 34.443,2.186C48.016,2.186 58.064,-0.681 64.584,-7.201C70.459,-13.076 73.459,-22.214 73.459,-34.736L73.459,-48.542C66.844,-49.798 60.047,-50.999 53.09,-52.15C50.932,-45.468 44.59,-41.128 36.793,-41.128C27.221,-41.128 19.963,-47.544 19.842,-57.067C13.363,-57.919 6.773,-58.73 0.084,-59.494C0.059,-58.854 0,-58.234 0,-57.57L0,-57.308Z" style="fill:rgb(31,65,154);fill-rule:nonzero;" />
      </g>
      <g transform="matrix(1,0,0,1,379.646,111.401)">
        <path d="M0,-33.218L0,5.237L19.836,5.237L19.836,-29.606C19.836,-32.648 19.497,-35.612 18.88,-38.455C12.434,-37.867 6.058,-37.249 -0.23,-36.588C-0.09,-35.524 0,-34.414 0,-33.218" style="fill:rgb(31,65,154);fill-rule:nonzero;" />
      </g>
      <g transform="matrix(1,0,0,1,332.092,112.59)">
        <path d="M0,-30.793L0,4.046L19.834,4.046L19.834,-34.409C19.834,-34.462 19.842,-34.519 19.842,-34.58C13.122,-33.719 6.513,-32.812 0.034,-31.861C0.026,-31.504 0,-31.148 0,-30.793Z" style="fill:rgb(31,65,154);fill-rule:nonzero;" />
      </g>
      <g transform="matrix(1,0,0,1,140.688,47.0624)">
        <path d="M0,73.839C-40.781,73.839 -73.838,57.311 -73.838,36.919C-73.838,16.526 -40.781,-0.002 0,-0.002C40.78,-0.002 73.838,16.526 73.838,36.919C73.838,57.311 40.78,73.839 0,73.839M0,-21.628C-64.669,-21.628 -117.094,4.584 -117.094,36.919C-117.094,69.256 -64.669,95.467 0,95.467C64.668,95.467 117.092,69.256 117.092,36.919C117.092,4.584 64.668,-21.628 0,-21.628" style="fill:rgb(93,168,221);fill-rule:nonzero;" />
      </g>
      <g transform="matrix(-1,0,0,1,140.684,112.035)">
        <path d="M-0.005,-56.109C30.984,-56.109 56.105,-43.549 56.105,-28.053C56.105,-12.561 30.984,0 -0.005,0C-30.991,0 -56.11,-12.561 -56.11,-28.053C-56.11,-43.549 -30.991,-56.109 -0.005,-56.109" style="fill:rgb(31,65,154);fill-rule:nonzero;" />
      </g>
      <g transform="matrix(1,0,0,1,257.78,129.908)">
        <path d="M0,-45.926C0,-48.349 -0.294,-50.733 -0.862,-53.074L-43.802,-50.44C-43.44,-48.959 -43.256,-47.453 -43.256,-45.926C-43.256,-39.494 -46.869,-33.162 -52.666,-27.887C-60.214,-21.164 -71.84,-15.738 -85.878,-12.459L-67.602,7.148C-45.412,1.97 -27.026,-6.592 -15.051,-17.203L-15.039,-17.199C-14.981,-17.251 -14.928,-17.305 -14.869,-17.358C-14.802,-17.418 -14.727,-17.478 -14.659,-17.539L-14.673,-17.542C-5.559,-25.88 0,-35.77 0,-45.926" style="fill:rgb(31,65,154);fill-rule:nonzero;" />
      </g>
      <g transform="matrix(1,0,0,1,23.5938,62.7734)">
        <path d="M0,21.208C0,10.921 5.305,1.256 14.623,-7.146L52.558,3.253C46.633,8.568 43.256,14.689 43.256,21.208C43.256,22.73 43.438,24.232 43.797,25.705L0.863,28.354C0.294,26.01 0,23.627 0,21.208" style="fill:rgb(31,65,154);fill-rule:nonzero;" />
      </g>
      <g transform="matrix(-0.714861,0.699266,0.699266,0.714861,221.464,34.9633)">
        <path d="M35.827,-46.879C19.808,-27.86 8.503,-8.001 2.879,9.894L35.827,-1.738C39.38,-13.018 46.511,-25.533 56.611,-37.516L35.827,-46.879Z" style="fill:rgb(31,65,154);fill-rule:nonzero;" />
      </g>
      <g transform="matrix(1,0,0,1,140.688,92.9457)">
        <path d="M0,-41.141C14.339,-41.141 25.962,-32.131 25.962,-17.789C25.962,-15.78 25.733,-13.821 25.3,-11.942C25.145,-11.268 24.965,-10.608 24.76,-9.957C22.274,-4.262 12.134,0 0,0C-12.135,0 -22.277,-4.262 -24.762,-9.957C-24.969,-10.608 -25.148,-11.268 -25.306,-11.942C-25.736,-13.821 -25.965,-15.78 -25.965,-17.789C-25.965,-32.131 -14.342,-41.141 0,-41.141" style="fill:rgb(237,24,71);fill-rule:nonzero;" />
      </g>
      <g transform="matrix(1,0,0,1,136.505,57.9043)">
        <path d="M0,-20.749C0,-23.203 1.874,-25.192 4.182,-25.192C6.49,-25.192 8.362,-23.203 8.362,-20.749L8.362,-0.005C8.362,2.453 6.49,4.443 4.182,4.443C1.874,4.443 0,2.453 0,-0.005L0,-20.749Z" style="fill:white;fill-rule:nonzero;" />
      </g>
    </g>
  </g>
</svg>
