<svg viewBox="0 0 534 129" version="1.1"
  xmlns="http://www.w3.org/2000/svg"
  xmlns:xlink="http://www.w3.org/1999/xlink" xml:space="preserve"
  xmlns:serif="http://www.serif.com/">
  <g transform="matrix(1,0,0,1,-13.022,-14.234)">
    <rect x="13.022" y="14.234" width="192.304" height="128.2" style="fill:rgb(31,65,154);" />
    <path d="M105.146,42.621L109.199,39.66L113.261,42.621L111.712,37.839L115.832,34.878L110.755,34.878L109.199,30.023L107.646,34.878L102.568,34.878L106.688,37.839L105.146,42.621Z" style="fill:rgb(255,216,0);fill-rule:nonzero;" />
    <path d="M84.144,48.265L88.198,45.304L92.257,48.265L90.712,43.474L94.835,40.513L89.752,40.513L88.198,35.66L86.642,40.521L81.569,40.513L85.685,43.474L84.144,48.265Z" style="fill:rgb(255,216,0);fill-rule:nonzero;" />
    <path d="M72.835,51.066L71.28,55.919L66.202,55.919L70.319,58.878L68.776,63.664L72.835,60.703L76.894,63.664L75.351,58.878L79.468,55.919L74.392,55.919L72.835,51.066Z" style="fill:rgb(255,216,0);fill-rule:nonzero;" />
    <path d="M67.196,81.677L71.253,84.636L69.714,79.855L73.832,76.89L68.756,76.89L67.196,72.031L65.644,76.9L60.564,76.89L64.684,79.855L63.14,84.636L67.196,81.677Z" style="fill:rgb(255,216,0);fill-rule:nonzero;" />
    <path d="M74.392,97.925L72.835,93.074L71.28,97.929L66.202,97.925L70.319,100.882L68.776,105.678L72.835,102.708L76.894,105.678L75.351,100.882L79.468,97.925L74.392,97.925Z" style="fill:rgb(255,216,0);fill-rule:nonzero;" />
    <path d="M89.785,113.323L88.231,108.465L86.676,113.323L81.597,113.323L85.714,116.28L84.173,121.063L88.233,118.106L92.286,121.063L90.747,116.28L94.864,113.323L89.785,113.323Z" style="fill:rgb(255,216,0);fill-rule:nonzero;" />
    <path d="M110.761,118.893L109.201,114.045L107.652,118.893L102.573,118.893L106.688,121.855L105.15,126.644L109.208,123.679L113.261,126.644L111.713,121.855L115.84,118.893L110.761,118.893Z" style="fill:rgb(255,216,0);fill-rule:nonzero;" />
    <path d="M131.729,113.323L130.175,108.465L128.621,113.323L123.546,113.323L127.665,116.28L126.125,121.063L130.175,118.106L134.236,121.063L132.689,116.28L136.81,113.323L131.729,113.323Z" style="fill:rgb(255,216,0);fill-rule:nonzero;" />
    <path d="M147.132,97.925L145.574,93.074L144.013,97.929L138.942,97.925L143.06,100.882L141.517,105.678L145.574,102.708L149.633,105.678L148.085,100.882L152.208,97.925L147.132,97.925Z" style="fill:rgb(255,216,0);fill-rule:nonzero;" />
    <path d="M157.785,76.833L152.705,76.833L151.146,71.982L149.595,76.833L144.515,76.833L148.638,79.794L147.093,84.576L151.146,81.617L155.207,84.576L153.664,79.794L157.785,76.833Z" style="fill:rgb(255,216,0);fill-rule:nonzero;" />
    <path d="M141.517,63.603L145.574,60.642L149.633,63.603L148.085,58.812L152.208,55.859L147.132,55.859L145.574,51.009L144.013,55.859L138.94,55.859L143.06,58.812L141.517,63.603Z" style="fill:rgb(255,216,0);fill-rule:nonzero;" />
    <path d="M130.235,35.667L128.685,40.531L123.606,40.513L127.719,43.482L126.178,48.275L130.244,45.304L134.292,48.275L132.756,43.482L136.876,40.513L131.791,40.513L130.235,35.667Z" style="fill:rgb(255,216,0);fill-rule:nonzero;" />
    <path d="M231.738,113.676L231.738,112.004L223.72,112.004L223.72,125.589L231.738,125.589L231.738,123.917L225.582,123.917L225.582,119.015L229.971,119.015L229.971,117.438L225.582,117.438L225.582,113.676L231.738,113.676Z" style="fill:currentColor;fill-rule:nonzero;" />
    <path d="M233.745,115.652L233.745,122.169C233.745,123.328 234.03,124.221 234.619,124.848C235.189,125.475 236.025,125.779 237.108,125.779C237.678,125.779 238.267,125.608 238.856,125.285C239.464,124.962 239.863,124.601 240.053,124.221L240.053,125.589L241.82,125.589L241.82,115.652L240.053,115.652L240.053,122.644C239.901,123.081 239.578,123.461 239.103,123.803C238.609,124.126 238.077,124.297 237.507,124.297C236.177,124.297 235.512,123.537 235.512,121.998L235.512,115.652L233.745,115.652Z" style="fill:currentColor;fill-rule:nonzero;" />
    <path d="M250.434,115.634C249.845,115.52 249.389,115.463 249.066,115.463C247.793,115.463 246.843,116.052 246.197,117.23L246.197,115.653L244.43,115.653L244.43,125.59L246.197,125.59L246.197,119.89C246.197,119.073 246.425,118.389 246.9,117.8C247.375,117.23 247.907,116.945 248.534,116.945C248.933,116.945 249.313,117.078 249.693,117.344L250.434,115.634Z" style="fill:currentColor;fill-rule:nonzero;" />
    <path d="M252.288,124.374C253.086,125.305 254.188,125.78 255.613,125.78C257,125.78 258.083,125.324 258.9,124.393C259.698,123.462 260.097,122.208 260.097,120.593C260.097,118.997 259.698,117.724 258.919,116.831C258.14,115.919 257.038,115.463 255.613,115.463C254.264,115.463 253.181,115.938 252.345,116.888C251.528,117.819 251.11,119.054 251.11,120.593C251.11,122.189 251.509,123.443 252.288,124.374ZM253.694,117.895C254.169,117.23 254.815,116.907 255.613,116.907C257.361,116.907 258.235,118.142 258.235,120.593C258.235,121.752 258.007,122.664 257.532,123.329C257.076,123.994 256.43,124.336 255.613,124.336C253.846,124.336 252.972,123.082 252.972,120.593C252.972,119.453 253.219,118.541 253.694,117.895Z" style="fill:currentColor;fill-rule:nonzero;" />
    <path d="M264.727,125.551C265.202,125.703 265.658,125.779 266.076,125.779C267.577,125.779 268.717,125.304 269.496,124.335C270.294,123.385 270.693,122.15 270.693,120.649C270.693,118.939 270.294,117.666 269.515,116.773C268.736,115.899 267.634,115.462 266.228,115.462C265.278,115.462 264.461,115.804 263.796,116.469L263.796,115.652L262.029,115.652L262.029,129.484L263.796,129.484L263.796,125.038C263.929,125.247 264.233,125.399 264.727,125.551ZM264.651,117.21C265.012,117.039 265.316,116.944 265.563,116.944C266.703,116.944 267.539,117.229 268.052,117.818C268.565,118.407 268.831,119.319 268.831,120.573C268.831,123.062 267.729,124.297 265.544,124.297C265.202,124.297 264.86,124.221 264.499,124.069C264.138,123.917 263.91,123.765 263.796,123.594L263.796,117.799C264.005,117.571 264.29,117.381 264.651,117.21Z" style="fill:currentColor;fill-rule:nonzero;" />
    <path d="M281.583,119.718C281.583,118.445 281.184,117.438 280.405,116.659C279.607,115.861 278.505,115.462 277.08,115.462C275.864,115.462 274.819,115.899 273.926,116.792C272.919,117.78 272.425,119.091 272.425,120.744C272.425,122.321 272.919,123.575 273.888,124.506C274.762,125.361 275.807,125.779 277.061,125.779C277.935,125.779 278.714,125.646 279.417,125.38C279.987,125.19 280.405,124.943 280.671,124.677L279.93,123.404C279.265,123.993 278.41,124.297 277.403,124.297C276.529,124.297 275.807,124.031 275.237,123.48C274.61,122.853 274.287,121.96 274.287,120.801L281.45,120.801C281.545,120.478 281.583,120.117 281.583,119.718ZM279.17,117.723C279.607,118.217 279.835,118.806 279.835,119.528L274.325,119.528C274.401,118.806 274.686,118.198 275.18,117.704C275.731,117.191 276.377,116.944 277.175,116.944C278.011,116.944 278.676,117.21 279.17,117.723Z" style="fill:currentColor;fill-rule:nonzero;" />
    <path d="M289.875,125.457C290.236,125.666 290.768,125.761 291.49,125.761L291.49,124.887C290.977,124.602 290.711,124.013 290.711,123.139L290.711,119.567C290.711,118.142 290.388,117.097 289.723,116.451C289.077,115.786 288.032,115.463 286.588,115.463C286.056,115.463 285.486,115.558 284.897,115.748C284.308,115.957 283.852,116.185 283.51,116.451L284.251,117.933C284.84,117.344 285.695,117.04 286.797,117.04C288.222,117.04 288.944,117.838 288.944,119.453C288.469,119.282 288.051,119.206 287.69,119.206C286.322,119.206 285.201,119.548 284.308,120.251C283.434,120.954 282.997,121.809 282.997,122.816C282.997,123.652 283.282,124.355 283.852,124.925C284.422,125.495 285.106,125.78 285.885,125.78C287.329,125.78 288.412,125.343 289.115,124.45C289.267,124.925 289.514,125.248 289.875,125.457ZM288.944,123.12C288.26,123.975 287.481,124.393 286.588,124.393C285.372,124.393 284.764,123.88 284.764,122.835C284.764,122.208 285.049,121.657 285.6,121.201C286.17,120.745 286.892,120.517 287.785,120.517C287.994,120.517 288.393,120.574 288.944,120.707L288.944,123.12Z" style="fill:currentColor;fill-rule:nonzero;" />
    <path d="M301.454,125.59L301.454,119.434C301.454,116.793 300.371,115.463 298.186,115.463C296.875,115.463 295.925,115.957 295.336,116.926L294.785,115.653L293.569,115.653L293.569,125.59L295.336,125.59L295.336,118.199C295.564,117.838 295.906,117.553 296.343,117.306C296.78,117.059 297.198,116.945 297.616,116.945C298.357,116.945 298.889,117.154 299.212,117.572C299.535,118.009 299.687,118.75 299.687,119.814L299.687,125.59L301.454,125.59Z" style="fill:currentColor;fill-rule:nonzero;" />
    <path d="M319.63,125.59L315.697,119.339C316.419,119.168 317.046,118.75 317.559,118.066C318.091,117.382 318.357,116.603 318.357,115.748C318.357,113.145 316.723,111.853 313.455,111.853C313.037,111.853 312.391,111.872 311.498,111.929C310.605,111.967 310.13,111.986 310.054,111.986L310.054,125.59L311.916,125.59L311.916,119.662C312.809,119.719 313.474,119.757 313.892,119.757L317.502,125.59L319.63,125.59ZM313.018,113.563C314.177,113.563 315.032,113.734 315.583,114.057C316.134,114.399 316.4,114.95 316.4,115.71C316.4,116.641 316.153,117.287 315.64,117.648C315.127,118.009 314.329,118.18 313.208,118.18C312.79,118.18 312.353,118.142 311.916,118.085L311.916,113.658C312.467,113.601 312.828,113.563 313.018,113.563Z" style="fill:currentColor;fill-rule:nonzero;" />
    <path d="M328.703,119.719C328.703,118.446 328.304,117.439 327.525,116.66C326.727,115.862 325.625,115.463 324.2,115.463C322.984,115.463 321.939,115.9 321.046,116.793C320.039,117.781 319.545,119.092 319.545,120.745C319.545,122.322 320.039,123.576 321.008,124.507C321.882,125.362 322.927,125.78 324.181,125.78C325.055,125.78 325.834,125.647 326.537,125.381C327.107,125.191 327.525,124.944 327.791,124.678L327.05,123.405C326.385,123.994 325.53,124.298 324.523,124.298C323.649,124.298 322.927,124.032 322.357,123.481C321.73,122.854 321.407,121.961 321.407,120.802L328.57,120.802C328.665,120.479 328.703,120.118 328.703,119.719ZM326.29,117.724C326.727,118.218 326.955,118.807 326.955,119.529L321.445,119.529C321.521,118.807 321.806,118.199 322.3,117.705C322.851,117.192 323.497,116.945 324.295,116.945C325.131,116.945 325.796,117.211 326.29,117.724Z" style="fill:currentColor;fill-rule:nonzero;" />
    <path d="M331.979,129.143C332.701,129.371 333.366,129.485 334.012,129.485C335.266,129.485 336.311,129.2 337.128,128.649C337.945,128.079 338.363,127.338 338.363,126.426C338.363,125.59 338.097,124.944 337.546,124.488C336.995,124.013 336.235,123.785 335.247,123.785C334.981,123.785 334.563,123.823 333.993,123.918C333.442,124.013 333.024,124.07 332.758,124.07C332.15,124.07 331.846,123.937 331.846,123.69C331.846,123.5 331.998,123.348 332.283,123.234C332.568,123.12 332.796,123.063 332.967,123.044L334.43,122.892C335.456,122.797 336.273,122.398 336.9,121.714C337.527,121.049 337.831,120.194 337.831,119.187C337.831,118.256 337.603,117.477 337.147,116.888L338.211,116.09L337.052,115.007L336.178,116.071C335.627,115.672 334.867,115.463 333.879,115.463C332.815,115.463 331.922,115.805 331.2,116.508C330.478,117.192 330.117,118.066 330.117,119.111C330.117,120.726 330.82,121.866 332.207,122.531C331.732,122.645 331.314,122.835 330.991,123.101C330.668,123.367 330.497,123.671 330.497,123.994C330.497,125.058 331.2,125.59 332.606,125.59C332.91,125.59 333.309,125.533 333.822,125.438C334.354,125.343 334.715,125.286 334.905,125.286C336.064,125.286 336.653,125.685 336.653,126.483C336.653,126.901 336.425,127.243 335.969,127.509C335.494,127.794 334.867,127.927 334.069,127.927C333.195,127.927 332.264,127.585 331.219,126.901L330.269,128.307C330.706,128.63 331.276,128.915 331.979,129.143ZM335.437,117.534C335.817,117.971 336.007,118.503 336.007,119.111C336.007,119.833 335.836,120.422 335.475,120.859C335.114,121.296 334.639,121.524 334.012,121.524C333.366,121.524 332.853,121.296 332.492,120.84C332.112,120.384 331.922,119.814 331.922,119.111C331.922,118.503 332.112,117.971 332.511,117.534C332.891,117.097 333.385,116.888 334.012,116.888C334.582,116.888 335.057,117.097 335.437,117.534Z" style="fill:currentColor;fill-rule:nonzero;" />
    <path d="M341.289,112.214C341.08,112.423 340.966,112.67 340.966,112.974C340.966,113.278 341.08,113.544 341.289,113.753C341.498,113.962 341.764,114.076 342.049,114.076C342.353,114.076 342.619,113.962 342.828,113.753C343.037,113.544 343.151,113.278 343.151,112.974C343.151,112.689 343.037,112.423 342.828,112.214C342.619,112.005 342.353,111.891 342.049,111.891C341.745,111.891 341.498,112.005 341.289,112.214ZM342.847,125.59L342.847,115.653L339.712,115.653L339.712,117.135L341.08,117.135L341.08,125.59L342.847,125.59Z" style="fill:currentColor;fill-rule:nonzero;" />
    <path d="M346.27,124.374C347.068,125.305 348.17,125.78 349.595,125.78C350.982,125.78 352.065,125.324 352.882,124.393C353.68,123.462 354.079,122.208 354.079,120.593C354.079,118.997 353.68,117.724 352.901,116.831C352.122,115.919 351.02,115.463 349.595,115.463C348.246,115.463 347.163,115.938 346.327,116.888C345.51,117.819 345.092,119.054 345.092,120.593C345.092,122.189 345.491,123.443 346.27,124.374ZM347.676,117.895C348.151,117.23 348.797,116.907 349.595,116.907C351.343,116.907 352.217,118.142 352.217,120.593C352.217,121.752 351.989,122.664 351.514,123.329C351.058,123.994 350.412,124.336 349.595,124.336C347.828,124.336 346.954,123.082 346.954,120.593C346.954,119.453 347.201,118.541 347.676,117.895Z" style="fill:currentColor;fill-rule:nonzero;" />
    <path d="M363.894,125.589L363.894,119.433C363.894,116.792 362.811,115.462 360.626,115.462C359.315,115.462 358.365,115.956 357.776,116.925L357.225,115.652L356.009,115.652L356.009,125.589L357.776,125.589L357.776,118.198C358.004,117.837 358.346,117.552 358.783,117.305C359.22,117.058 359.638,116.944 360.056,116.944C360.797,116.944 361.329,117.153 361.652,117.571C361.975,118.008 362.127,118.749 362.127,119.813L362.127,125.589L363.894,125.589Z" style="fill:currentColor;fill-rule:nonzero;" />
    <path d="M373.211,125.456C373.572,125.665 374.104,125.76 374.826,125.76L374.826,124.886C374.313,124.601 374.047,124.012 374.047,123.138L374.047,119.566C374.047,118.141 373.724,117.096 373.059,116.45C372.413,115.785 371.368,115.462 369.924,115.462C369.392,115.462 368.822,115.557 368.233,115.747C367.644,115.956 367.188,116.184 366.846,116.45L367.587,117.932C368.176,117.343 369.031,117.039 370.133,117.039C371.558,117.039 372.28,117.837 372.28,119.452C371.805,119.281 371.387,119.205 371.026,119.205C369.658,119.205 368.537,119.547 367.644,120.25C366.77,120.953 366.333,121.808 366.333,122.815C366.333,123.651 366.618,124.354 367.188,124.924C367.758,125.494 368.442,125.779 369.221,125.779C370.665,125.779 371.748,125.342 372.451,124.449C372.603,124.924 372.85,125.247 373.211,125.456ZM372.28,123.119C371.596,123.974 370.817,124.392 369.924,124.392C368.708,124.392 368.1,123.879 368.1,122.834C368.1,122.207 368.385,121.656 368.936,121.2C369.506,120.744 370.228,120.516 371.121,120.516C371.33,120.516 371.729,120.573 372.28,120.706L372.28,123.119Z" style="fill:currentColor;fill-rule:nonzero;" />
    <path d="M380.838,125.779L380.838,124.202C380.344,124.202 379.945,124.05 379.641,123.746C379.337,123.442 379.185,123.024 379.185,122.492L379.185,111.586L377.418,111.586L377.418,122.777C377.418,124.772 378.558,125.779 380.838,125.779Z" style="fill:currentColor;fill-rule:nonzero;" />
    <path d="M398.416,118.237C398.416,116.337 397.865,114.798 396.763,113.639C395.642,112.48 394.141,111.91 392.241,111.91C391.766,111.91 390.645,111.948 388.897,112.005L388.897,125.59L391.633,125.59C396.155,125.59 398.416,123.139 398.416,118.237ZM392.146,113.582C395.015,113.582 396.459,115.197 396.459,118.408C396.459,120.137 396.098,121.486 395.357,122.455C394.616,123.424 393.59,123.918 392.298,123.918C391.69,123.918 391.177,123.88 390.759,123.823L390.759,113.677C391.5,113.62 391.956,113.582 392.146,113.582Z" style="fill:currentColor;fill-rule:nonzero;" />
    <path d="M409.005,119.719C409.005,118.446 408.606,117.439 407.827,116.66C407.029,115.862 405.927,115.463 404.502,115.463C403.286,115.463 402.241,115.9 401.348,116.793C400.341,117.781 399.847,119.092 399.847,120.745C399.847,122.322 400.341,123.576 401.31,124.507C402.184,125.362 403.229,125.78 404.483,125.78C405.357,125.78 406.136,125.647 406.839,125.381C407.409,125.191 407.827,124.944 408.093,124.678L407.352,123.405C406.687,123.994 405.832,124.298 404.825,124.298C403.951,124.298 403.229,124.032 402.659,123.481C402.032,122.854 401.709,121.961 401.709,120.802L408.872,120.802C408.967,120.479 409.005,120.118 409.005,119.719ZM406.592,117.724C407.029,118.218 407.257,118.807 407.257,119.529L401.747,119.529C401.823,118.807 402.108,118.199 402.602,117.705C403.153,117.192 403.799,116.945 404.597,116.945C405.433,116.945 406.098,117.211 406.592,117.724Z" style="fill:currentColor;fill-rule:nonzero;" />
    <path d="M418.874,115.634L417.031,115.634L414.352,122.588L411.73,115.634L409.792,115.634L414.048,125.78L414.504,125.78L418.874,115.634Z" style="fill:currentColor;fill-rule:nonzero;" />
    <path d="M428.825,119.719C428.825,118.446 428.426,117.439 427.647,116.66C426.849,115.862 425.747,115.463 424.322,115.463C423.106,115.463 422.061,115.9 421.168,116.793C420.161,117.781 419.667,119.092 419.667,120.745C419.667,122.322 420.161,123.576 421.13,124.507C422.004,125.362 423.049,125.78 424.303,125.78C425.177,125.78 425.956,125.647 426.659,125.381C427.229,125.191 427.647,124.944 427.913,124.678L427.172,123.405C426.507,123.994 425.652,124.298 424.645,124.298C423.771,124.298 423.049,124.032 422.479,123.481C421.852,122.854 421.529,121.961 421.529,120.802L428.692,120.802C428.787,120.479 428.825,120.118 428.825,119.719ZM426.412,117.724C426.849,118.218 427.077,118.807 427.077,119.529L421.567,119.529C421.643,118.807 421.928,118.199 422.422,117.705C422.973,117.192 423.619,116.945 424.417,116.945C425.253,116.945 425.918,117.211 426.412,117.724Z" style="fill:currentColor;fill-rule:nonzero;" />
    <path d="M434.305,125.78L434.305,124.203C433.811,124.203 433.412,124.051 433.108,123.747C432.804,123.443 432.652,123.025 432.652,122.493L432.652,111.587L430.885,111.587L430.885,122.778C430.885,124.773 432.025,125.78 434.305,125.78Z" style="fill:currentColor;fill-rule:nonzero;" />
    <path d="M436.963,124.374C437.761,125.305 438.863,125.78 440.288,125.78C441.675,125.78 442.758,125.324 443.575,124.393C444.373,123.462 444.772,122.208 444.772,120.593C444.772,118.997 444.373,117.724 443.594,116.831C442.815,115.919 441.713,115.463 440.288,115.463C438.939,115.463 437.856,115.938 437.02,116.888C436.203,117.819 435.785,119.054 435.785,120.593C435.785,122.189 436.184,123.443 436.963,124.374ZM438.369,117.895C438.844,117.23 439.49,116.907 440.288,116.907C442.036,116.907 442.91,118.142 442.91,120.593C442.91,121.752 442.682,122.664 442.207,123.329C441.751,123.994 441.105,124.336 440.288,124.336C438.521,124.336 437.647,123.082 437.647,120.593C437.647,119.453 437.894,118.541 438.369,117.895Z" style="fill:currentColor;fill-rule:nonzero;" />
    <path d="M449.401,125.552C449.876,125.704 450.332,125.78 450.75,125.78C452.251,125.78 453.391,125.305 454.17,124.336C454.968,123.386 455.367,122.151 455.367,120.65C455.367,118.94 454.968,117.667 454.189,116.774C453.41,115.9 452.308,115.463 450.902,115.463C449.952,115.463 449.135,115.805 448.47,116.47L448.47,115.653L446.703,115.653L446.703,129.485L448.47,129.485L448.47,125.039C448.603,125.248 448.907,125.4 449.401,125.552ZM449.325,117.211C449.686,117.04 449.99,116.945 450.237,116.945C451.377,116.945 452.213,117.23 452.726,117.819C453.239,118.408 453.505,119.32 453.505,120.574C453.505,123.063 452.403,124.298 450.218,124.298C449.876,124.298 449.534,124.222 449.173,124.07C448.812,123.918 448.584,123.766 448.47,123.595L448.47,117.8C448.679,117.572 448.964,117.382 449.325,117.211Z" style="fill:currentColor;fill-rule:nonzero;" />
    <path d="M470.646,125.59L470.646,118.94C470.646,117.838 470.361,116.983 469.81,116.375C469.24,115.767 468.442,115.463 467.416,115.463C466.846,115.463 466.295,115.596 465.744,115.843C465.212,116.09 464.851,116.413 464.642,116.793C464.072,115.9 463.084,115.463 461.659,115.463C460.633,115.463 459.778,115.9 459.094,116.793L458.524,115.653L457.365,115.653L457.365,125.59L459.132,125.59L459.132,118.256C459.303,117.933 459.588,117.629 459.987,117.363C460.386,117.078 460.747,116.945 461.108,116.945C461.716,116.945 462.21,117.078 462.571,117.363C462.932,117.648 463.122,118.028 463.122,118.522L463.122,125.59L464.889,125.59L464.889,118.237C465.022,117.895 465.288,117.61 465.649,117.344C466.029,117.078 466.428,116.945 466.846,116.945C468.195,116.945 468.879,117.724 468.879,119.301L468.879,125.59L470.646,125.59Z" style="fill:currentColor;fill-rule:nonzero;" />
    <path d="M481.725,119.719C481.725,118.446 481.326,117.439 480.547,116.66C479.749,115.862 478.647,115.463 477.222,115.463C476.006,115.463 474.961,115.9 474.068,116.793C473.061,117.781 472.567,119.092 472.567,120.745C472.567,122.322 473.061,123.576 474.03,124.507C474.904,125.362 475.949,125.78 477.203,125.78C478.077,125.78 478.856,125.647 479.559,125.381C480.129,125.191 480.547,124.944 480.813,124.678L480.072,123.405C479.407,123.994 478.552,124.298 477.545,124.298C476.671,124.298 475.949,124.032 475.379,123.481C474.752,122.854 474.429,121.961 474.429,120.802L481.592,120.802C481.687,120.479 481.725,120.118 481.725,119.719ZM479.312,117.724C479.749,118.218 479.977,118.807 479.977,119.529L474.467,119.529C474.543,118.807 474.828,118.199 475.322,117.705C475.873,117.192 476.519,116.945 477.317,116.945C478.153,116.945 478.818,117.211 479.312,117.724Z" style="fill:currentColor;fill-rule:nonzero;" />
    <path d="M491.537,125.59L491.537,119.434C491.537,116.793 490.454,115.463 488.269,115.463C486.958,115.463 486.008,115.957 485.419,116.926L484.868,115.653L483.652,115.653L483.652,125.59L485.419,125.59L485.419,118.199C485.647,117.838 485.989,117.553 486.426,117.306C486.863,117.059 487.281,116.945 487.699,116.945C488.44,116.945 488.972,117.154 489.295,117.572C489.618,118.009 489.77,118.75 489.77,119.814L489.77,125.59L491.537,125.59Z" style="fill:currentColor;fill-rule:nonzero;" />
    <path d="M494.735,122.683C494.735,123.576 495.001,124.317 495.552,124.906C496.084,125.495 496.768,125.78 497.547,125.78C498.421,125.78 499.219,125.685 499.96,125.495L499.694,123.956C499.219,124.184 498.744,124.298 498.288,124.298C497.661,124.298 497.205,124.127 496.92,123.766C496.635,123.424 496.502,122.816 496.502,121.98L496.502,117.04L499.238,117.04L499.238,115.653L496.502,115.653L496.502,112.898L494.735,113.582L494.735,115.653L493.576,115.653L493.576,117.04L494.735,117.04L494.735,122.683Z" style="fill:currentColor;fill-rule:nonzero;" />
    <path d="M516.049,113.677L516.049,112.005L507.651,112.005L507.651,125.59L509.513,125.59L509.513,119.016L514.282,119.016L514.282,117.439L509.513,117.439L509.513,113.677L516.049,113.677Z" style="fill:currentColor;fill-rule:nonzero;" />
    <path d="M517.472,115.653L517.472,122.17C517.472,123.329 517.757,124.222 518.346,124.849C518.916,125.476 519.752,125.78 520.835,125.78C521.405,125.78 521.994,125.609 522.583,125.286C523.191,124.963 523.59,124.602 523.78,124.222L523.78,125.59L525.547,125.59L525.547,115.653L523.78,115.653L523.78,122.645C523.628,123.082 523.305,123.462 522.83,123.804C522.336,124.127 521.804,124.298 521.234,124.298C519.904,124.298 519.239,123.538 519.239,121.999L519.239,115.653L517.472,115.653Z" style="fill:currentColor;fill-rule:nonzero;" />
    <path d="M535.909,125.59L535.909,119.434C535.909,116.793 534.826,115.463 532.641,115.463C531.33,115.463 530.38,115.957 529.791,116.926L529.24,115.653L528.024,115.653L528.024,125.59L529.791,125.59L529.791,118.199C530.019,117.838 530.361,117.553 530.798,117.306C531.235,117.059 531.653,116.945 532.071,116.945C532.812,116.945 533.344,117.154 533.667,117.572C533.99,118.009 534.142,118.75 534.142,119.814L534.142,125.59L535.909,125.59Z" style="fill:currentColor;fill-rule:nonzero;" />
    <path d="M546.556,125.59L546.556,111.587L544.789,111.587L544.789,116.185C544.257,115.71 543.478,115.463 542.452,115.463C541.217,115.463 540.153,115.995 539.26,117.04C538.367,118.104 537.93,119.377 537.93,120.859C537.93,122.341 538.31,123.538 539.089,124.431C539.868,125.324 540.875,125.761 542.11,125.761C543.288,125.761 544.181,125.457 544.789,124.849L544.789,125.59L546.556,125.59ZM544.789,123.462C544.694,123.652 544.447,123.842 544.048,124.013C543.668,124.184 543.326,124.279 543.06,124.279C540.875,124.279 539.792,123.082 539.792,120.688C539.792,119.605 540.077,118.712 540.666,118.009C541.255,117.306 542.015,116.945 542.965,116.945C543.744,116.945 544.352,117.287 544.789,117.952L544.789,123.462Z" style="fill:currentColor;fill-rule:nonzero;" />
    <path d="M239.153,73.058L239.153,69.89L223.961,69.89L223.961,95.63L239.153,95.63L239.153,92.462L227.489,92.462L227.489,83.174L235.805,83.174L235.805,80.186L227.489,80.186L227.489,73.058L239.153,73.058Z" style="fill:currentColor;fill-rule:nonzero;" />
    <path d="M246.484,87.782C246.484,90.446 247.276,92.498 248.824,93.902C250.372,95.342 252.604,96.062 255.484,96.062C258.292,96.062 260.488,95.342 262.108,93.866C263.728,92.426 264.556,90.374 264.556,87.782L264.556,69.89L261.028,69.89L261.028,87.422C261.028,89.114 260.524,90.446 259.552,91.418C258.544,92.39 257.176,92.894 255.448,92.894C253.828,92.894 252.496,92.39 251.488,91.382C250.516,90.374 250.012,89.078 250.012,87.494L250.012,69.89L246.484,69.89L246.484,87.782Z" style="fill:currentColor;fill-rule:nonzero;" />
    <path d="M291.391,95.63L283.939,83.786C285.307,83.462 286.495,82.67 287.467,81.374C288.475,80.078 288.979,78.602 288.979,76.982C288.979,72.05 285.883,69.602 279.691,69.602C278.899,69.602 277.675,69.638 275.983,69.746C274.291,69.818 273.391,69.854 273.247,69.854L273.247,95.63L276.775,95.63L276.775,84.398C278.467,84.506 279.727,84.578 280.519,84.578L287.359,95.63L291.391,95.63ZM278.863,72.842C281.059,72.842 282.679,73.166 283.723,73.778C284.767,74.426 285.271,75.47 285.271,76.91C285.271,78.674 284.803,79.898 283.831,80.582C282.859,81.266 281.347,81.59 279.223,81.59C278.431,81.59 277.603,81.518 276.775,81.41L276.775,73.022C277.819,72.914 278.503,72.842 278.863,72.842Z" style="fill:currentColor;fill-rule:nonzero;" />
    <path d="M298.773,92.282C300.609,94.802 303.165,96.062 306.405,96.062C309.969,96.062 312.705,94.874 314.613,92.462C316.521,90.086 317.493,86.774 317.493,82.526C317.493,78.422 316.557,75.182 314.649,72.878C312.741,70.574 310.005,69.422 306.405,69.422C303.237,69.422 300.717,70.682 298.845,73.166C296.973,75.686 296.037,78.818 296.037,82.526C296.037,86.486 296.937,89.726 298.773,92.282ZM301.437,75.254C302.589,73.49 304.245,72.59 306.405,72.59C311.337,72.59 313.785,75.902 313.785,82.526C313.785,85.802 313.173,88.358 311.913,90.158C310.653,91.994 308.817,92.894 306.405,92.894C304.281,92.894 302.661,91.922 301.509,89.942C300.321,87.962 299.745,85.478 299.745,82.526C299.745,79.466 300.321,77.054 301.437,75.254Z" style="fill:currentColor;fill-rule:nonzero;" />
    <path d="M330.879,85.91C337.503,85.91 340.815,83.03 340.815,77.234C340.815,72.23 337.071,69.71 329.583,69.71C329.043,69.71 327.423,69.782 324.759,69.89L324.759,95.63L328.287,95.63L328.287,85.73C329.619,85.838 330.483,85.91 330.879,85.91ZM330.195,72.878C334.839,72.878 337.179,74.462 337.179,77.594C337.179,81.014 334.983,82.742 330.627,82.742C330.555,82.742 329.763,82.67 328.287,82.562L328.287,73.058C329.079,72.95 329.727,72.878 330.195,72.878Z" style="fill:currentColor;fill-rule:nonzero;" />
    <path d="M363.265,73.058L363.265,69.89L348.073,69.89L348.073,95.63L363.265,95.63L363.265,92.462L351.601,92.462L351.601,83.174L359.917,83.174L359.917,80.186L351.601,80.186L351.601,73.058L363.265,73.058Z" style="fill:currentColor;fill-rule:nonzero;" />
    <path d="M389.137,95.63L379.417,69.53L378.481,69.53L368.005,95.63L371.929,95.63L373.837,90.194L383.449,90.194L385.249,95.63L389.137,95.63ZM382.441,87.602L374.773,87.602L378.805,76.298L382.441,87.602Z" style="fill:currentColor;fill-rule:nonzero;" />
    <path d="M412.782,95.99L412.782,69.89L409.434,69.89L409.434,87.71L396.474,69.89L395.07,69.89L395.07,95.63L398.418,95.63L398.418,77.162L411.738,95.99L412.782,95.99Z" style="fill:currentColor;fill-rule:nonzero;" />
    <path d="M435.371,87.782C435.371,90.446 436.163,92.498 437.711,93.902C439.259,95.342 441.491,96.062 444.371,96.062C447.179,96.062 449.375,95.342 450.995,93.866C452.615,92.426 453.443,90.374 453.443,87.782L453.443,69.89L449.915,69.89L449.915,87.422C449.915,89.114 449.411,90.446 448.439,91.418C447.431,92.39 446.063,92.894 444.335,92.894C442.715,92.894 441.383,92.39 440.375,91.382C439.403,90.374 438.899,89.078 438.899,87.494L438.899,69.89L435.371,69.89L435.371,87.782Z" style="fill:currentColor;fill-rule:nonzero;" />
    <path d="M479.667,95.99L479.667,69.89L476.319,69.89L476.319,87.71L463.359,69.89L461.955,69.89L461.955,95.63L465.303,95.63L465.303,77.162L478.623,95.99L479.667,95.99Z" style="fill:currentColor;fill-rule:nonzero;" />
    <rect x="488.781" y="69.89" width="3.528" height="25.74" style="fill:currentColor" />
    <path d="M502.941,92.282C504.777,94.802 507.333,96.062 510.573,96.062C514.137,96.062 516.873,94.874 518.781,92.462C520.689,90.086 521.661,86.774 521.661,82.526C521.661,78.422 520.725,75.182 518.817,72.878C516.909,70.574 514.173,69.422 510.573,69.422C507.405,69.422 504.885,70.682 503.013,73.166C501.141,75.686 500.205,78.818 500.205,82.526C500.205,86.486 501.105,89.726 502.941,92.282ZM505.605,75.254C506.757,73.49 508.413,72.59 510.573,72.59C515.505,72.59 517.953,75.902 517.953,82.526C517.953,85.802 517.341,88.358 516.081,90.158C514.821,91.994 512.985,92.894 510.573,92.894C508.449,92.894 506.829,91.922 505.677,89.942C504.489,87.962 503.913,85.478 503.913,82.526C503.913,79.466 504.489,77.054 505.605,75.254Z" style="fill:currentColor;fill-rule:nonzero;" />
    <path d="M546.639,95.99L546.639,69.89L543.291,69.89L543.291,87.71L530.331,69.89L528.927,69.89L528.927,95.63L532.275,95.63L532.275,77.162L545.595,95.99L546.639,95.99Z" style="fill:currentColor;fill-rule:nonzero;" />
  </g>
</svg>
