<?xml version="1.0" encoding="UTF-8" standalone="no"?>
<!DOCTYPE svg PUBLIC "-//W3C//DTD SVG 1.1//EN" "http://www.w3.org/Graphics/SVG/1.1/DTD/svg11.dtd">
<svg width="100%" height="100%" viewBox="0 0 2070 898" version="1.1" xmlns="http://www.w3.org/2000/svg" xmlns:xlink="http://www.w3.org/1999/xlink" xml:space="preserve" xmlns:serif="http://www.serif.com/" style="fill-rule:evenodd;clip-rule:evenodd;stroke-linejoin:round;stroke-miterlimit:2;">
    <g transform="matrix(1,0,0,1,-719.01,-791.342)">
        <g id="Layer-1" serif:id="Layer 1" transform="matrix(4.16667,0,0,4.16667,0,0)">
            <g transform="matrix(1,0,0,1,197.209,268.655)">
                <path d="M0,60.093L10.886,60.093L36.317,-1.568L21.773,-1.568L6.271,38.843L6.096,38.843L-9.145,-1.568L-24.647,-1.568L0,60.093ZM43.296,60.093L56.882,60.093L56.882,-1.568L43.296,-1.568L43.296,60.093ZM69.809,60.093L83.396,60.093L83.396,35.446L90.102,35.446L102.991,60.093L119.277,60.093L103.601,34.053C107.955,33.24 111.265,31.309 113.529,28.261C115.794,25.213 116.926,21.511 116.926,17.157C116.926,13.558 116.301,10.553 115.053,8.143C113.804,5.734 112.121,3.818 110.002,2.395C107.882,0.973 105.415,-0.044 102.599,-0.653C99.782,-1.263 96.808,-1.568 93.672,-1.568L69.809,-1.568L69.809,60.093ZM83.396,9.928L92.279,9.928C93.498,9.928 94.746,10.015 96.024,10.19C97.3,10.364 98.433,10.699 99.42,11.191C100.407,11.685 101.219,12.397 101.859,13.325C102.497,14.254 102.817,15.502 102.817,17.07C102.817,18.754 102.454,20.061 101.728,20.989C101.002,21.918 100.087,22.6 98.985,23.036C97.881,23.471 96.647,23.732 95.284,23.819C93.919,23.907 92.627,23.95 91.408,23.95L83.396,23.95L83.396,9.928ZM126.631,60.093L140.217,60.093L140.217,-1.568L126.631,-1.568L126.631,60.093ZM203.868,-1.568L190.282,-1.568L190.282,35.794C190.282,37.71 189.977,39.482 189.368,41.107C188.758,42.733 187.901,44.142 186.799,45.331C185.695,46.522 184.389,47.451 182.879,48.118C181.369,48.786 179.714,49.119 177.915,49.119C176.115,49.119 174.445,48.786 172.907,48.118C171.368,47.451 170.047,46.522 168.945,45.331C167.841,44.142 166.985,42.733 166.376,41.107C165.766,39.482 165.461,37.71 165.461,35.794L165.461,-1.568L151.875,-1.568L151.875,36.317C151.875,39.975 152.426,43.343 153.53,46.42C154.632,49.498 156.273,52.168 158.45,54.432C160.628,56.696 163.341,58.468 166.593,59.745C169.844,61.021 173.618,61.661 177.915,61.661C182.153,61.661 185.898,61.021 189.15,59.745C192.401,58.468 195.116,56.696 197.293,54.432C199.47,52.168 201.11,49.498 202.214,46.42C203.316,43.343 203.868,39.975 203.868,36.317L203.868,-1.568ZM215.376,60.093L228.962,60.093L228.962,12.802L229.137,12.802L244.726,60.093L255.09,60.093L271.289,12.802L271.463,12.802L271.463,60.093L285.049,60.093L285.049,-1.568L264.583,-1.568L250.3,38.669L250.126,38.669L235.93,-1.568L215.376,-1.568L215.376,60.093Z" style="fill:rgb(233,83,13);fill-rule:nonzero;"/>
            </g>
            <g transform="matrix(1,0,0,1,283.78,342.127)">
                <path d="M0,61.66L13.586,61.66L13.586,35.01L39.975,35.01L39.975,61.66L53.561,61.66L53.561,-0.001L39.975,-0.001L39.975,22.991L13.586,22.991L13.586,-0.001L0,-0.001L0,61.66ZM64.882,61.66L108.341,61.66L108.341,49.119L78.468,49.119L78.468,36.578L105.205,36.578L105.205,24.036L78.468,24.036L78.468,12.54L106.773,12.54L106.773,-0.001L64.882,-0.001L64.882,61.66ZM118.007,61.66L156.763,61.66L156.763,49.119L131.593,49.119L131.593,-0.001L118.007,-0.001L118.007,61.66ZM204.052,4.876C201.439,2.555 198.507,0.9 195.256,-0.088C192.004,-1.074 188.637,-1.568 185.153,-1.568C182.134,-1.568 179.201,-1.147 176.357,-0.306C173.512,0.537 171.001,1.8 168.824,3.483C166.646,5.168 164.905,7.258 163.598,9.753C162.292,12.251 161.639,15.153 161.639,18.463C161.639,21.889 162.349,24.646 163.772,26.736C165.194,28.827 166.98,30.511 169.129,31.788C171.276,33.065 173.599,34.082 176.096,34.836C178.592,35.591 180.914,36.346 183.063,37.1C185.21,37.855 186.996,38.77 188.419,39.844C189.841,40.919 190.553,42.384 190.553,44.242C190.553,45.345 190.277,46.303 189.726,47.116C189.173,47.93 188.448,48.596 187.548,49.119C186.647,49.641 185.632,50.033 184.5,50.295C183.368,50.556 182.249,50.686 181.147,50.686C178.883,50.686 176.691,50.179 174.572,49.162C172.452,48.147 170.696,46.71 169.303,44.851L159.636,55.477C162.597,58.206 165.789,60.179 169.216,61.399C172.641,62.618 176.357,63.228 180.363,63.228C183.556,63.228 186.59,62.821 189.464,62.008C192.338,61.196 194.864,59.948 197.041,58.263C199.219,56.58 200.945,54.461 202.223,51.906C203.5,49.352 204.139,46.362 204.139,42.935C204.139,39.336 203.443,36.462 202.049,34.313C200.656,32.166 198.899,30.453 196.78,29.175C194.66,27.898 192.382,26.911 189.943,26.214C187.505,25.517 185.225,24.82 183.107,24.124C180.987,23.427 179.231,22.586 177.838,21.598C176.444,20.611 175.747,19.189 175.747,17.33C175.747,16.17 176.037,15.183 176.618,14.369C177.198,13.557 177.953,12.904 178.883,12.41C179.811,11.917 180.799,11.554 181.844,11.321C182.889,11.09 183.904,10.973 184.892,10.973C186.575,10.973 188.361,11.308 190.248,11.974C192.134,12.642 193.63,13.673 194.733,15.066L204.052,4.876ZM214.067,61.66L227.653,61.66L227.653,-0.001L214.067,-0.001L214.067,61.66ZM240.019,61.66L253.605,61.66L253.605,17.766L253.78,17.766L280.691,61.66L298.458,61.66L298.458,-0.001L284.871,-0.001L284.871,42.848L284.697,42.848L258.483,-0.001L240.019,-0.001L240.019,61.66ZM309.778,61.66L323.365,61.66L323.365,32.397L348.447,61.66L367.433,61.66L337.648,28.652L365.081,-0.001L347.315,-0.001L323.365,25.604L323.365,-0.001L309.778,-0.001L309.778,61.66ZM371.96,61.66L385.546,61.66L385.546,-0.001L371.96,-0.001L371.96,61.66Z" style="fill:rgb(233,83,13);fill-rule:nonzero;"/>
            </g>
            <g transform="matrix(1,0,0,1,254.218,238.926)">
                <path d="M0,-33.212L29.465,-33.212L29.465,-47.436L-13.586,-47.436L-13.586,14.224L0,14.224L0,-33.212ZM39.366,-3.194C41.02,0.812 43.328,4.224 46.289,7.039C49.251,9.856 52.763,12.019 56.828,13.528C60.891,15.037 65.333,15.792 70.153,15.792C74.971,15.792 79.413,15.037 83.478,13.528C87.541,12.019 91.055,9.856 94.016,7.039C96.977,4.224 99.285,0.812 100.939,-3.194C102.594,-7.2 103.422,-11.67 103.422,-16.606C103.422,-21.54 102.594,-26.012 100.939,-30.018C99.285,-34.024 96.977,-37.434 94.016,-40.251C91.055,-43.067 87.541,-45.229 83.478,-46.74C79.413,-48.249 74.971,-49.004 70.153,-49.004C65.333,-49.004 60.891,-48.249 56.828,-46.74C52.763,-45.229 49.251,-43.067 46.289,-40.251C43.328,-37.434 41.02,-34.024 39.366,-30.018C37.711,-26.012 36.884,-21.54 36.884,-16.606C36.884,-11.67 37.711,-7.2 39.366,-3.194M52.342,-24.531C53.242,-26.97 54.533,-29.074 56.218,-30.845C57.901,-32.616 59.919,-33.994 62.271,-34.982C64.622,-35.969 67.249,-36.463 70.153,-36.463C73.055,-36.463 75.683,-35.969 78.034,-34.982C80.386,-33.994 82.403,-32.616 84.087,-30.845C85.771,-29.074 87.062,-26.97 87.963,-24.531C88.862,-22.093 89.313,-19.45 89.313,-16.606C89.313,-13.702 88.862,-11.046 87.963,-8.637C87.062,-6.227 85.771,-4.137 84.087,-2.367C82.403,-0.595 80.386,0.784 78.034,1.77C75.683,2.758 73.055,3.251 70.153,3.251C67.249,3.251 64.622,2.758 62.271,1.77C59.919,0.784 57.901,-0.595 56.218,-2.367C54.533,-4.137 53.242,-6.227 52.342,-8.637C51.441,-11.046 50.992,-13.702 50.992,-16.606C50.992,-19.45 51.441,-22.093 52.342,-24.531M112.652,14.224L126.238,14.224L126.238,-10.422L132.944,-10.422L145.834,14.224L162.12,14.224L146.443,-11.816C150.798,-12.628 154.107,-14.559 156.372,-17.608C158.636,-20.656 159.768,-24.357 159.768,-28.712C159.768,-32.311 159.144,-35.316 157.896,-37.726C156.647,-40.134 154.963,-42.05 152.845,-43.474C150.724,-44.896 148.257,-45.912 145.442,-46.522C142.625,-47.132 139.65,-47.436 136.515,-47.436L112.652,-47.436L112.652,14.224ZM126.238,-35.94L135.122,-35.94C136.341,-35.94 137.589,-35.853 138.866,-35.679C140.143,-35.505 141.275,-35.17 142.263,-34.677C143.25,-34.183 144.062,-33.472 144.702,-32.544C145.34,-31.614 145.66,-30.366 145.66,-28.799C145.66,-27.114 145.296,-25.808 144.571,-24.88C143.844,-23.95 142.93,-23.268 141.828,-22.833C140.724,-22.398 139.49,-22.136 138.126,-22.049C136.761,-21.962 135.47,-21.919 134.251,-21.919L126.238,-21.919L126.238,-35.94ZM221.789,-47.436L208.203,-47.436L208.203,-10.074C208.203,-8.158 207.898,-6.386 207.288,-4.762C206.679,-3.135 205.821,-1.727 204.719,-0.538C203.615,0.653 202.309,1.583 200.8,2.249C199.289,2.917 197.635,3.251 195.836,3.251C194.035,3.251 192.366,2.917 190.828,2.249C189.289,1.583 187.968,0.653 186.865,-0.538C185.762,-1.727 184.906,-3.135 184.296,-4.762C183.687,-6.386 183.382,-8.158 183.382,-10.074L183.382,-47.436L169.795,-47.436L169.795,-9.552C169.795,-5.894 170.347,-2.526 171.45,0.551C172.552,3.629 174.194,6.299 176.371,8.563C178.548,10.828 181.262,12.6 184.514,13.876C187.765,15.152 191.538,15.792 195.836,15.792C200.073,15.792 203.818,15.152 207.071,13.876C210.322,12.6 213.036,10.828 215.214,8.563C217.391,6.299 219.031,3.629 220.134,0.551C221.237,-2.526 221.789,-5.894 221.789,-9.552L221.789,-47.436ZM233.297,14.224L246.883,14.224L246.883,-33.066L247.057,-33.066L262.647,14.224L273.01,14.224L289.21,-33.066L289.384,-33.066L289.384,14.224L302.97,14.224L302.97,-47.436L282.503,-47.436L268.22,-7.2L268.046,-7.2L253.85,-47.436L233.297,-47.436L233.297,14.224Z" style="fill:rgb(233,83,13);fill-rule:nonzero;"/>
            </g>
            <g transform="matrix(1,0,0,1,270.691,217.909)">
                <path d="M0,18.367C5.072,18.367 9.183,14.258 9.183,9.179C9.183,4.109 5.072,0 0,0C-5.072,0 -9.183,4.109 -9.183,9.179C-9.183,14.258 -5.072,18.367 0,18.367" style="fill:rgb(233,83,13);fill-rule:nonzero;"/>
            </g>
        </g>
    </g>
</svg>
