<svg viewBox="0 0 267 124" version="1.1"
  xmlns="http://www.w3.org/2000/svg"
  xmlns:xlink="http://www.w3.org/1999/xlink" xml:space="preserve"
  xmlns:serif="http://www.serif.com/">
  <g transform="matrix(0.24,0,0,0.24,-29.8122,-29.8117)">
    <g transform="matrix(4.16667,0,0,4.16667,0,0)">
      <g transform="matrix(1,0,0,1,167.182,33.8437)">
        <path d="M0,115.628C5.485,110.164 12.777,107.154 20.533,107.154L96.601,107.154C114.622,107.154 129.285,92.652 129.285,74.828L129.285,-4.032L-137.37,-4.032L-137.37,74.828C-137.37,92.652 -122.798,107.154 -104.886,107.154L-28.619,107.154C-20.862,107.154 -13.57,110.164 -8.087,115.627L-4.042,119.66L0,115.628ZM121.598,3.655L121.598,74.828C121.598,88.413 110.384,99.467 96.601,99.467L20.533,99.467C11.368,99.467 2.714,102.791 -4.042,108.872C-10.798,102.793 -19.454,99.467 -28.619,99.467L-104.886,99.467C-118.56,99.467 -129.683,88.413 -129.683,74.828L-129.683,3.655L121.598,3.655Z" style="fill:rgb(79,190,156);fill-rule:nonzero;" />
      </g>
      <g transform="matrix(1,0,0,1,89.5811,66.2953)">
        <path d="M0,37.238L7.687,37.238L7.687,1.046L0,1.046L0,15.376L-14.435,15.376L-14.435,1.046L-22.123,1.046L-22.123,37.238L-14.435,37.238L-14.435,22.227L0,22.227L0,37.238ZM37.165,26.045L20.115,26.045C20.428,30.334 22.834,32.426 25.92,32.426C28.691,32.426 30.575,30.595 30.993,28.085L37.217,31.589C35.386,34.937 31.412,37.866 25.92,37.866C18.545,37.866 13.159,32.74 13.159,24.057C13.159,15.481 18.65,10.25 25.763,10.25C32.823,10.25 37.53,15.271 37.53,22.436C37.53,24.581 37.165,26.045 37.165,26.045M25.763,15.585C23.043,15.585 20.846,17.521 20.271,21.129L30.679,21.129C30.679,17.939 28.639,15.585 25.763,15.585M50.448,-0.366L43.022,-0.366L43.022,29.968C43.022,32.687 43.605,34.667 44.774,35.904C45.942,37.142 47.798,37.76 50.344,37.76C51.216,37.76 52.104,37.664 53.012,37.473C53.917,37.281 54.65,37.01 55.208,36.663L55.835,31.694C55.242,31.903 54.729,32.051 54.293,32.138C53.856,32.226 53.343,32.269 52.75,32.269C51.773,32.269 51.364,32.025 50.998,31.537C50.632,31.049 50.448,30.176 50.448,28.922L50.448,-0.366ZM74.287,29.915C74.287,27.823 71.358,27.352 67.958,26.411C63.983,25.365 59.015,23.378 59.015,18.358C59.015,13.389 63.774,10.25 69.422,10.25C74.653,10.25 79.464,12.761 81.503,16.265L75.175,19.821C74.548,17.467 72.561,15.637 69.684,15.637C67.802,15.637 66.232,16.474 66.232,17.991C66.232,19.979 69.684,20.188 73.606,21.443C77.738,22.75 81.503,24.634 81.503,29.444C81.503,34.727 76.588,37.866 70.887,37.866C64.715,37.866 59.851,35.25 57.707,31.066L64.141,27.458C64.978,30.334 67.278,32.478 70.783,32.478C72.823,32.478 74.287,31.589 74.287,29.915M87.048,37.238L94.475,37.238L94.475,10.879L87.048,10.879L87.048,37.238ZM95.049,3.608C95.049,6.014 93.166,7.74 90.761,7.74C88.355,7.74 86.472,6.014 86.472,3.608C86.472,1.202 88.355,-0.524 90.761,-0.524C93.166,-0.524 95.049,1.202 95.049,3.608M125.436,20.344C125.436,13.807 122.246,10.25 117.172,10.25C112.832,10.25 110.583,12.813 109.275,15.219L109.118,15.219L109.484,10.879L102.111,10.879L102.111,37.238L109.484,37.238L109.484,21.599C109.484,18.566 111.263,16.474 114.034,16.474C116.806,16.474 118.009,18.305 118.009,21.809L118.009,37.238L125.436,37.238L125.436,20.344ZM148.657,21.339L158.332,37.238L150.278,37.238L143.792,26.674L140.289,31.118L140.289,37.238L132.915,37.238L132.915,-0.628L140.289,-0.628L140.289,16.841C140.289,20.083 139.922,23.326 139.922,23.326L140.079,23.326C140.079,23.326 141.806,20.449 143.27,18.41L148.918,10.879L157.547,10.879L148.657,21.339ZM161.941,37.238L169.368,37.238L169.368,10.879L161.941,10.879L161.941,37.238ZM169.943,3.608C169.943,6.014 168.059,7.74 165.655,7.74C163.249,7.74 161.365,6.014 161.365,3.608C161.365,1.202 163.249,-0.524 165.655,-0.524C168.059,-0.524 169.943,1.202 169.943,3.608" style="fill:rgb(79,190,156);fill-rule:nonzero;" />
      </g>
    </g>
  </g>
</svg>
