<svg style="fill:currentColor" viewBox="0 0 586 495" version="1.1"
  xmlns="http://www.w3.org/2000/svg"
  xmlns:serif="http://www.serif.com/"
  xmlns:xlink="http://www.w3.org/1999/xlink" xml:space="preserve">
  <g transform="matrix(0.944778,0,0,0.932332,-67.4576,-37.0749)">
    <rect x="71.4" y="39.766" width="619.884" height="530.241" style="fill:none;" />
    <g transform="matrix(1.05845,0,0,1.07258,142.967,350.316)">
      <path d="M0,-78.803L0,25.611C0,27.778 -1.773,29.551 -3.94,29.551L-23.641,29.551C-25.808,29.551 -27.581,27.778 -27.581,25.611L-27.581,-78.803C-27.581,-79.985 -28.369,-80.773 -29.551,-80.773L-54.177,-80.773C-56.344,-80.773 -58.117,-82.546 -58.117,-84.713L-58.117,-104.414C-58.117,-106.581 -56.344,-108.354 -54.177,-108.354L26.596,-108.354C28.763,-108.354 30.536,-106.581 30.536,-104.414L30.536,-84.713C30.536,-82.546 28.763,-80.773 26.596,-80.773L1.97,-80.773C0.788,-80.773 0,-79.985 0,-78.803" />
    </g>
    <g transform="matrix(1.05845,0,0,1.07258,256.857,382.011)">
      <path d="M0,-137.904L19.701,-137.904C21.868,-137.904 23.641,-136.131 23.641,-133.964L23.641,-3.94C23.641,-1.773 21.868,0 19.701,0L0,0C-2.167,0 -3.94,-1.773 -3.94,-3.94L-3.94,-53.192C-3.94,-54.373 -4.728,-55.161 -5.91,-55.161L-35.855,-55.161C-37.037,-55.161 -37.825,-54.373 -37.825,-53.192L-37.825,-3.94C-37.825,-1.773 -40.583,0 -42.75,0L-61.466,0C-63.633,0 -65.406,-1.773 -65.406,-3.94L-65.406,-133.964C-65.406,-136.131 -63.633,-137.904 -61.466,-137.904L-41.765,-137.904C-39.598,-137.904 -37.825,-136.131 -37.825,-133.964L-37.825,-84.713C-37.825,-83.53 -37.037,-82.742 -35.855,-82.742L-5.91,-82.742C-4.728,-82.742 -3.94,-83.53 -3.94,-84.713L-3.94,-133.964C-3.94,-136.131 -2.167,-137.904 0,-137.904" />
    </g>
    <g transform="matrix(1.05845,0,0,1.07258,334.379,238.324)">
      <path d="M0,130.024C0,132.191 -1.773,133.964 -3.94,133.964L-23.641,133.964C-25.808,133.964 -27.581,132.191 -27.581,130.024L-27.581,0C-27.581,-2.167 -25.808,-3.94 -23.641,-3.94L-3.94,-3.94C-1.773,-3.94 0,-2.167 0,0L0,130.024Z" />
    </g>
    <g transform="matrix(1.05845,0,0,1.07258,422.517,234.098)">
      <path d="M0,137.904C-3.349,137.904 -4.729,136.131 -5.319,134.555L-32.112,65.406C-32.506,64.224 -33.885,64.618 -33.885,65.8L-33.885,133.964C-33.885,136.131 -35.658,137.904 -37.825,137.904L-57.526,137.904C-59.693,137.904 -61.466,136.131 -61.466,133.964L-61.466,3.94C-61.466,1.773 -59.693,0 -57.526,0L-34.082,0C-31.127,0 -29.748,1.773 -29.157,3.546L-2.167,78.408C-1.773,79.59 -0.394,79.196 -0.394,78.014L-0.394,3.94C-0.394,1.773 1.379,0 3.546,0L23.247,0C25.414,0 27.187,1.773 27.187,3.94L27.187,133.964C27.187,136.131 25.414,137.904 23.247,137.904L0,137.904Z" />
    </g>
    <g transform="matrix(1.05845,0,0,1.07258,541.576,287.135)">
      <path d="M0,39.007C0,37.825 -0.788,37.037 -1.97,37.037L-15.367,37.037C-17.534,37.037 -19.307,35.264 -19.307,33.097L-19.307,14.382C-19.307,12.215 -17.534,10.441 -15.367,10.441L23.05,10.441C25.217,10.441 26.99,12.215 26.99,14.382L26.99,47.478C26.99,71.119 7.092,90.623 -19.898,90.623C-47.084,90.623 -64.027,70.725 -66.785,47.085C-68.755,30.536 -68.755,8.471 -66.785,-8.077C-64.027,-31.718 -47.084,-51.616 -19.898,-51.616C7.289,-51.616 26.99,-32.9 26.99,-6.698L26.99,-6.501C26.99,-4.531 25.217,-2.561 23.05,-2.561L3.349,-2.561C1.182,-2.561 -0.591,-4.334 -0.591,-6.501L-0.591,-6.698C-0.591,-14.776 -7.486,-23.838 -19.898,-23.838C-31.915,-23.838 -38.022,-16.745 -39.007,-8.077C-40.978,8.471 -40.978,30.536 -39.007,47.085C-38.022,55.753 -31.915,62.845 -19.898,62.845C-8.077,62.845 0,56.344 0,47.478L0,39.007Z" />
    </g>
    <g transform="matrix(1.05845,0,0,1.07258,631.652,294.954)">
      <path d="M0,24.428C-24.625,18.912 -44.129,8.076 -44.129,-17.337C-44.129,-40.584 -25.02,-58.905 0.985,-58.905C27.384,-58.905 46.296,-40.584 46.296,-17.337L46.296,-14.382C46.296,-12.215 44.523,-10.442 42.356,-10.442L22.459,-10.442C20.292,-10.442 18.519,-12.215 18.519,-14.382L18.519,-17.337C18.519,-25.218 12.214,-32.113 0.985,-32.113C-10.047,-32.113 -16.154,-26.202 -16.154,-18.322C-16.154,-10.836 -8.865,-6.108 1.379,-4.138C28.763,1.378 49.055,12.804 49.055,40.188C49.055,65.799 28.96,83.333 0.985,83.333C-26.202,83.333 -45.902,64.223 -45.902,40.188L-45.902,34.278C-45.902,32.111 -44.129,30.338 -41.962,30.338L-22.064,30.338C-19.897,30.338 -18.125,32.111 -18.125,34.278L-18.125,40.188C-18.125,49.251 -11.229,56.343 0.985,56.343C12.806,56.343 20.489,49.448 20.489,40.188C20.489,31.717 14.775,27.777 0,24.428" />
    </g>
    <g transform="matrix(1.05845,0,0,1.07258,454.349,451.992)">
      <path d="M0,52.404C0,78.803 -19.701,97.321 -46.888,97.321C-74.074,97.321 -91.017,77.424 -93.775,53.783C-95.745,37.235 -95.745,15.17 -93.775,-1.379C-91.017,-25.019 -74.074,-44.917 -46.888,-44.917C-19.701,-44.917 0,-26.201 0,0.001L0,0.197C0,2.168 -1.773,4.137 -3.94,4.137L-23.641,4.137C-25.808,4.137 -27.581,2.364 -27.581,0.197L-27.581,0.001C-27.581,-8.077 -34.476,-17.139 -46.888,-17.139C-58.905,-17.139 -65.012,-10.047 -65.997,-1.379C-67.967,15.17 -67.967,37.235 -65.997,53.783C-65.012,62.451 -58.905,69.544 -46.888,69.544C-35.264,69.544 -27.581,61.072 -27.581,52.601L-27.581,52.404C-27.581,50.237 -25.808,48.267 -23.641,48.267L-3.94,48.267C-1.773,48.267 0,50.04 0,52.207L0,52.404Z" />
    </g>
    <g transform="matrix(1.05845,0,0,1.07258,540.742,450.514)">
      <path d="M0,55.162C1.97,38.613 1.97,16.549 0,-0C-0.985,-8.668 -7.092,-15.76 -19.11,-15.76C-31.127,-15.76 -37.234,-8.668 -38.219,-0C-40.189,16.549 -40.189,38.613 -38.219,55.162C-37.234,63.83 -31.127,70.922 -19.11,70.922C-7.092,70.922 -0.985,63.83 0,55.162M27.778,-0C29.748,16.549 29.748,38.613 27.778,55.162C25.02,78.803 8.077,98.7 -19.11,98.7C-46.296,98.7 -63.239,78.803 -65.997,55.162C-67.967,38.613 -67.967,16.549 -65.997,-0C-63.239,-23.641 -46.296,-43.538 -19.11,-43.538C8.077,-43.538 25.02,-23.641 27.778,-0" />
    </g>
    <g transform="matrix(1.05845,0,0,1.07258,252.502,57.766)">
      <path d="M0,137.904C-3.349,137.904 -4.729,136.131 -5.319,134.555L-32.112,65.405C-32.506,64.224 -33.885,64.618 -33.885,65.8L-33.885,133.964C-33.885,136.131 -35.658,137.904 -37.825,137.904L-57.526,137.904C-59.693,137.904 -61.466,136.131 -61.466,133.964L-61.466,3.94C-61.466,1.773 -59.693,0 -57.526,0L-34.082,0C-31.127,0 -29.748,1.773 -29.157,3.546L-2.167,78.408C-1.773,79.59 -0.394,79.196 -0.394,78.014L-0.394,3.94C-0.394,1.773 1.379,0 3.546,0L23.247,0C25.414,0 27.187,1.773 27.187,3.94L27.187,133.964C27.187,136.131 25.414,137.904 23.247,137.904L0,137.904Z" />
    </g>
    <g transform="matrix(1.05845,0,0,1.07258,333.818,89.461)">
      <path d="M0,78.803C0,79.985 0.788,80.773 1.97,80.773L48.661,80.773C50.828,80.773 52.601,82.546 52.601,84.713L52.601,104.414C52.601,106.581 50.828,108.354 48.661,108.354L-23.641,108.354C-25.808,108.354 -27.581,106.581 -27.581,104.414L-27.581,-25.611C-27.581,-27.778 -25.808,-29.551 -23.641,-29.551L47.873,-29.551C50.04,-29.551 51.813,-27.778 51.813,-25.611L51.813,-5.91C51.813,-3.743 50.04,-1.97 47.873,-1.97L1.97,-1.97C0.788,-1.97 0,-1.182 0,0L0,23.641C0,24.823 0.788,25.611 1.97,25.611L46.296,25.611C48.463,25.611 50.237,27.384 50.237,29.552L50.237,49.252C50.237,51.419 48.463,53.192 46.296,53.192L1.97,53.192C0.788,53.192 0,53.98 0,55.162L0,78.803Z" />
    </g>
    <g transform="matrix(1.05845,0,0,1.07258,460.386,57.766)">
      <path d="M0,137.904L-27.384,137.904C-29.157,137.904 -30.733,136.919 -31.127,134.949L-57.526,3.94C-57.92,1.97 -56.738,0 -53.586,0L-33.885,0C-32.112,0 -30.536,0.788 -30.142,2.955L-13.988,89.835C-13.791,90.82 -13.396,91.214 -12.608,91.214L-11.426,91.214C-10.639,91.214 -10.245,90.82 -10.047,89.835L3.152,2.955C3.546,0.985 5.122,0 6.895,0L24.625,0C26.399,0 27.975,0.985 28.369,2.955L41.765,89.835C41.962,90.82 42.356,91.214 43.144,91.214L44.326,91.214C45.114,91.214 45.508,90.82 45.705,89.835L61.86,2.955C62.254,0.788 63.83,0 65.603,0L85.304,0C88.456,0 89.638,1.97 89.244,3.94L62.648,134.949C62.254,136.919 60.678,137.904 58.905,137.904L31.521,137.904C29.748,137.904 28.172,136.919 27.778,134.949L16.942,70.922C16.746,69.346 14.775,69.346 14.578,70.922L3.743,134.949C3.349,136.919 1.773,137.904 0,137.904" />
    </g>
  </g>
</svg>
