<svg viewBox="0 0 1765 413" version="1.1"
  xmlns="http://www.w3.org/2000/svg"
  xmlns:xlink="http://www.w3.org/1999/xlink" xml:space="preserve"
  xmlns:serif="http://www.serif.com/">
  <g transform="matrix(1,0,0,1,-150.679,-161.069)">
    <g transform="matrix(4.16667,0,0,4.16667,683.453,320.073)">
      <path d="M0,-20.496L-9.115,-20.496L-9.115,5.233L-15.22,5.233L-15.22,-20.496L-24.334,-20.496L-24.334,-25.729L0,-25.729L0,-20.496Z" style="fill:rgb(0,115,210);fill-rule:nonzero;" />
    </g>
    <g transform="matrix(4.16667,0,0,4.16667,736.936,286.824)">
      <path d="M0,4.142L0,2.834L-3.75,3.619C-7.108,4.317 -9.332,5.102 -9.332,7.195C-9.332,8.59 -8.067,9.419 -5.931,9.419C-3.052,9.419 0,8.024 0,4.142M5.408,-1.833L5.408,13.213L0.306,13.213L0.306,10.902C-1.046,12.777 -3.445,13.955 -6.89,13.955C-11.12,13.955 -14.871,12.122 -14.871,7.587C-14.871,2.442 -10.292,0.654 -5.233,-0.262L0,-1.221L0,-1.745C0,-3.925 -1.613,-5.147 -4.187,-5.147C-7.239,-5.147 -8.809,-3.752 -11.12,-1.527L-14.696,-4.797C-11.905,-8.112 -8.678,-9.813 -4.273,-9.813C2.137,-9.813 5.408,-6.543 5.408,-1.833" style="fill:rgb(0,115,210);fill-rule:nonzero;" />
    </g>
    <g transform="matrix(-4.16667,0,0,4.16667,1592.04,-180.187)">
      <rect x="188.21" y="94.333" width="5.669" height="30.963" style="fill:rgb(0,115,210);" />
    </g>
    <g transform="matrix(-4.16667,0,0,4.16667,1688.85,-180.187)">
      <rect x="199.827" y="94.333" width="5.669" height="30.963" style="fill:rgb(0,115,210);" />
    </g>
    <g transform="matrix(4.16667,0,0,4.16667,0,-180.187)">
      <path d="M217.071,125.296L211.402,125.296L211.402,103.011L217.071,103.011L217.071,125.296ZM217.071,99.653L211.402,99.653L211.402,94.333L217.071,94.333L217.071,99.653Z" style="fill:rgb(0,115,210);fill-rule:nonzero;" />
    </g>
    <g transform="matrix(4.16667,0,0,4.16667,1012.14,309.535)">
      <path d="M0,-7.501L0,7.763L-5.669,7.763L-5.669,-5.8C-5.669,-8.722 -7.108,-10.379 -9.812,-10.379C-12.429,-10.379 -14.304,-8.46 -14.304,-5.669L-14.304,7.763L-19.973,7.763L-19.973,-14.522L-14.696,-14.522L-14.696,-11.993C-13.301,-13.999 -11.033,-15.264 -7.98,-15.264C-2.791,-15.264 0,-12.036 0,-7.501" style="fill:rgb(0,115,210);fill-rule:nonzero;" />
    </g>
    <g transform="matrix(4.16667,0,0,4.16667,1119.96,309.535)">
      <path d="M0,-7.501L0,7.763L-5.669,7.763L-5.669,-5.8C-5.669,-8.722 -7.108,-10.379 -9.812,-10.379C-12.429,-10.379 -14.304,-8.46 -14.304,-5.669L-14.304,7.763L-19.973,7.763L-19.973,-14.522L-14.696,-14.522L-14.696,-11.993C-13.301,-13.999 -11.033,-15.264 -7.98,-15.264C-2.791,-15.264 0,-12.036 0,-7.501" style="fill:rgb(0,115,210);fill-rule:nonzero;" />
    </g>
    <g transform="matrix(4.16667,0,0,4.16667,1202.19,286.824)">
      <path d="M0,4.142L0,2.834L-3.75,3.619C-7.108,4.317 -9.332,5.102 -9.332,7.195C-9.332,8.59 -8.067,9.419 -5.931,9.419C-3.052,9.419 0,8.024 0,4.142M5.408,-1.833L5.408,13.213L0.306,13.213L0.306,10.902C-1.046,12.777 -3.445,13.955 -6.89,13.955C-11.12,13.955 -14.871,12.122 -14.871,7.587C-14.871,2.442 -10.292,0.654 -5.233,-0.262L0,-1.221L0,-1.745C0,-3.925 -1.613,-5.147 -4.187,-5.147C-7.239,-5.147 -8.809,-3.752 -11.12,-1.527L-14.696,-4.797C-11.905,-8.112 -8.678,-9.813 -4.273,-9.813C2.137,-9.813 5.408,-6.543 5.408,-1.833" style="fill:rgb(0,115,210);fill-rule:nonzero;" />
    </g>
    <g transform="matrix(4.16667,0,0,4.16667,681.817,506.32)">
      <path d="M0,-23.244L-2.355,-20.453C-5.756,-23.418 -8.286,-24.334 -11.688,-24.334C-15.961,-24.334 -18.796,-22.197 -18.796,-19.275C-18.796,-16.005 -15.961,-15.22 -10.292,-13.955C-2.66,-12.167 0.436,-10.03 0.436,-5.058C0.436,0.697 -4.274,4.535 -10.99,4.535C-16.092,4.535 -19.625,2.966 -24.029,-0.828L-21.63,-3.663C-17.051,0.175 -14.304,1.047 -10.946,1.047C-6.716,1.047 -3.576,-1.134 -3.576,-4.841C-3.576,-8.591 -6.934,-9.376 -12.21,-10.597C-20.017,-12.385 -22.721,-14.348 -22.721,-19.188C-22.721,-24.378 -17.749,-27.779 -11.688,-27.779C-6.978,-27.779 -3.663,-26.384 0,-23.244" style="fill:rgb(0,115,210);fill-rule:nonzero;" />
    </g>
    <g transform="matrix(4.16667,0,0,4.16667,746.242,406.021)">
      <path d="M0,27.56C-1.57,28.127 -3.14,28.302 -4.405,28.302C-8.504,28.302 -9.943,26.339 -9.943,22.938L-9.943,9.289L-13.955,9.289L-13.955,6.454L-9.943,6.454L-9.943,-0.742L-6.193,-0.742L-6.193,6.454L-0.393,6.454L-0.393,9.289L-6.193,9.289L-6.193,22.501C-6.193,24.42 -5.451,25.119 -3.664,25.119C-2.878,25.119 -2.006,24.988 -0.567,24.595L0,27.56Z" style="fill:rgb(0,115,210);fill-rule:nonzero;" />
    </g>
    <g transform="matrix(4.16667,0,0,4.16667,809.914,519.584)">
      <path d="M0,-20.409L-0.698,-17.269C-1.788,-17.575 -2.66,-17.706 -3.489,-17.706C-6.367,-17.706 -8.504,-15.22 -8.504,-10.859L-8.504,0.654L-12.254,0.654L-12.254,-20.802L-8.722,-20.802L-8.722,-17.575C-7.719,-19.668 -5.931,-21.063 -3.402,-21.063C-2.137,-21.063 -0.959,-20.758 0,-20.409" style="fill:rgb(0,115,210);fill-rule:nonzero;" />
    </g>
    <g transform="matrix(4.16667,0,0,4.16667,879.437,466.71)">
      <path d="M0,5.32L0,2.485L-3.925,3.27C-8.111,4.142 -11.121,4.927 -11.121,7.893C-11.121,9.855 -9.463,10.946 -6.716,10.946C-3.009,10.946 0,8.852 0,5.32M3.576,-1.571L3.576,13.344L0.174,13.344L0.174,10.684C-1.265,12.865 -3.881,14.042 -7.108,14.042C-11.295,14.042 -14.784,12.298 -14.784,8.024C-14.784,3.008 -10.161,1.526 -4.797,0.566L0,-0.306L0,-1.396C0,-4.1 -2.05,-5.626 -5.015,-5.626C-7.763,-5.626 -9.55,-4.579 -12.08,-2.006L-14.479,-4.143C-11.818,-7.284 -8.853,-8.722 -5.146,-8.722C0.523,-8.722 3.576,-5.757 3.576,-1.571" style="fill:rgb(0,115,210);fill-rule:nonzero;" />
    </g>
    <g transform="matrix(4.16667,0,0,4.16667,963.392,406.021)">
      <path d="M0,27.56C-1.57,28.127 -3.14,28.302 -4.405,28.302C-8.504,28.302 -9.943,26.339 -9.943,22.938L-9.943,9.289L-13.955,9.289L-13.955,6.454L-9.943,6.454L-9.943,-0.742L-6.193,-0.742L-6.193,6.454L-0.393,6.454L-0.393,9.289L-6.193,9.289L-6.193,22.501C-6.193,24.42 -5.451,25.119 -3.664,25.119C-2.878,25.119 -2.006,24.988 -0.567,24.595L0,27.56Z" style="fill:rgb(0,115,210);fill-rule:nonzero;" />
    </g>
    <g transform="matrix(4.16667,0,0,4.16667,984.346,486.519)">
      <path d="M0,-4.275L12.385,-4.275C12.211,-7.982 10.118,-10.467 6.367,-10.467C2.878,-10.467 0.567,-8.244 0,-4.275M16.136,4.752C12.996,8.111 10.292,9.201 6.803,9.201C0.262,9.201 -3.837,4.708 -3.837,-2.007C-3.837,-8.723 0.131,-13.476 6.411,-13.476C12.603,-13.476 16.092,-9.464 16.092,-3.141C16.092,-2.705 16.048,-1.877 16.005,-1.484L-0.087,-1.484C0.131,2.485 2.181,6.061 6.847,6.061C9.594,6.061 11.208,5.058 13.912,2.485L16.136,4.752Z" style="fill:rgb(0,115,210);fill-rule:nonzero;" />
    </g>
    <g transform="matrix(4.16667,0,0,4.16667,1079.51,486.519)">
      <path d="M0,-4.275L12.385,-4.275C12.211,-7.982 10.118,-10.467 6.367,-10.467C2.878,-10.467 0.567,-8.244 0,-4.275M16.136,4.752C12.996,8.111 10.292,9.201 6.803,9.201C0.262,9.201 -3.837,4.708 -3.837,-2.007C-3.837,-8.723 0.131,-13.476 6.411,-13.476C12.603,-13.476 16.092,-9.464 16.092,-3.141C16.092,-2.705 16.048,-1.877 16.005,-1.484L-0.087,-1.484C0.131,2.485 2.181,6.061 6.847,6.061C9.594,6.061 11.208,5.058 13.912,2.485L16.136,4.752Z" style="fill:rgb(0,115,210);fill-rule:nonzero;" />
    </g>
    <g transform="matrix(4.16667,0,0,4.16667,1227.09,511.953)">
      <path d="M0,-8.678C0,-13.17 -2.529,-16.397 -6.324,-16.397C-10.249,-16.397 -12.516,-13.17 -12.516,-8.678C-12.516,-4.143 -10.249,-0.959 -6.324,-0.959C-2.529,-0.959 0,-4.143 0,-8.678M3.62,-18.97L3.62,2.007C3.62,7.632 -0.218,10.902 -6.105,10.902C-9.682,10.902 -12.865,9.812 -15.831,7.718L-13.955,4.971C-11.251,6.673 -9.071,7.718 -6.149,7.718C-2.791,7.718 -0.087,6.062 -0.087,1.701L-0.087,-1.221C-1.483,0.916 -3.75,2.224 -6.934,2.224C-12.516,2.224 -16.354,-2.311 -16.354,-8.678C-16.354,-15.045 -12.516,-19.58 -6.934,-19.58C-3.576,-19.58 -1.265,-18.142 0.131,-15.786L0.131,-18.97L3.62,-18.97Z" style="fill:rgb(0,115,210);fill-rule:nonzero;" />
    </g>
    <g transform="matrix(4.16667,0,0,4.16667,0,183.95)">
      <path d="M307.039,81.207L303.289,81.207L303.289,59.751L307.039,59.751L307.039,81.207ZM307.039,55.52L303.289,55.52L303.289,51.029L307.039,51.029L307.039,55.52Z" style="fill:rgb(0,115,210);fill-rule:nonzero;" />
    </g>
    <g transform="matrix(4.16667,0,0,4.16667,1357.87,466.71)">
      <path d="M0,5.32L0,2.485L-3.925,3.27C-8.111,4.142 -11.121,4.927 -11.121,7.893C-11.121,9.855 -9.463,10.946 -6.716,10.946C-3.009,10.946 0,8.852 0,5.32M3.576,-1.571L3.576,13.344L0.174,13.344L0.174,10.684C-1.265,12.865 -3.881,14.042 -7.108,14.042C-11.295,14.042 -14.784,12.298 -14.784,8.024C-14.784,3.008 -10.161,1.526 -4.797,0.566L0,-0.306L0,-1.396C0,-4.1 -2.05,-5.626 -5.015,-5.626C-7.763,-5.626 -9.55,-4.579 -12.08,-2.006L-14.479,-4.143C-11.818,-7.284 -8.853,-8.722 -5.146,-8.722C0.523,-8.722 3.576,-5.757 3.576,-1.571" style="fill:rgb(0,115,210);fill-rule:nonzero;" />
    </g>
    <g transform="matrix(4.16667,0,0,4.16667,1425.96,438.18)">
      <path d="M0,9.42L-3.881,13.301L-3.881,20.191L-7.632,20.191L-7.632,-10.771L-3.881,-10.771L-3.881,9.158L6.105,-1.265L10.684,-1.265L2.529,7.022L11.338,20.191L7.152,20.191L0,9.42Z" style="fill:rgb(0,115,210);fill-rule:nonzero;" />
    </g>
    <g transform="matrix(4.16667,0,0,4.16667,1490.52,486.519)">
      <path d="M0,-4.275L12.385,-4.275C12.211,-7.982 10.118,-10.467 6.367,-10.467C2.878,-10.467 0.567,-8.244 0,-4.275M16.136,4.752C12.996,8.111 10.292,9.201 6.803,9.201C0.262,9.201 -3.837,4.708 -3.837,-2.007C-3.837,-8.723 0.131,-13.476 6.411,-13.476C12.603,-13.476 16.092,-9.464 16.092,-3.141C16.092,-2.705 16.048,-1.877 16.005,-1.484L-0.087,-1.484C0.131,2.485 2.181,6.061 6.847,6.061C9.594,6.061 11.208,5.058 13.912,2.485L16.136,4.752Z" style="fill:rgb(0,115,210);fill-rule:nonzero;" />
    </g>
    <g transform="matrix(4.16667,0,0,4.16667,1643.91,511.77)">
      <path d="M0,-16.397L-2.05,-13.868C-4.841,-16.004 -6.498,-16.484 -8.81,-16.484C-11.731,-16.484 -13.519,-15.132 -13.519,-13.3C-13.519,-11.425 -11.688,-10.99 -7.763,-10.118C-2.181,-8.853 0.349,-7.327 0.349,-3.532C0.349,0.436 -3.053,3.14 -8.242,3.14C-12.037,3.14 -14.74,2.137 -18.142,-0.872L-15.918,-3.314C-12.734,-0.654 -10.815,0.043 -8.199,0.043C-5.408,0.043 -3.314,-1.221 -3.314,-3.358C-3.314,-5.712 -5.888,-6.367 -9.333,-7.108C-15.045,-8.33 -17.139,-9.594 -17.139,-13.17C-17.139,-16.92 -13.781,-19.537 -8.81,-19.537C-5.321,-19.537 -2.878,-18.709 0,-16.397" style="fill:rgb(0,115,210);fill-rule:nonzero;" />
    </g>
    <g transform="matrix(4.16667,0,0,4.16667,1693.12,438.18)">
      <path d="M0,9.42L-3.881,13.301L-3.881,20.191L-7.632,20.191L-7.632,-10.771L-3.881,-10.771L-3.881,9.158L6.105,-1.265L10.684,-1.265L2.529,7.022L11.338,20.191L7.152,20.191L0,9.42Z" style="fill:rgb(0,115,210);fill-rule:nonzero;" />
    </g>
    <g transform="matrix(4.16667,0,0,4.16667,1823.94,524.853)">
      <path d="M0,-22.066L0,-0.61L-3.489,-0.61L-3.489,-3.27C-4.753,-1.177 -7.108,0 -9.987,0C-15.438,0 -17.618,-3.139 -17.618,-7.021L-17.618,-22.066L-13.868,-22.066L-13.868,-7.937C-13.868,-4.884 -12.298,-3.227 -9.376,-3.227C-6.236,-3.227 -3.75,-5.146 -3.75,-8.983L-3.75,-22.066L0,-22.066Z" style="fill:rgb(0,115,210);fill-rule:nonzero;" />
    </g>
    <g transform="matrix(4.16667,0,0,4.16667,1913.31,511.77)">
      <path d="M0,-16.397L-2.05,-13.868C-4.841,-16.004 -6.498,-16.484 -8.81,-16.484C-11.731,-16.484 -13.519,-15.132 -13.519,-13.3C-13.519,-11.425 -11.688,-10.99 -7.763,-10.118C-2.181,-8.853 0.349,-7.327 0.349,-3.532C0.349,0.436 -3.053,3.14 -8.242,3.14C-12.037,3.14 -14.74,2.137 -18.142,-0.872L-15.918,-3.314C-12.734,-0.654 -10.815,0.043 -8.199,0.043C-5.408,0.043 -3.314,-1.221 -3.314,-3.358C-3.314,-5.712 -5.888,-6.367 -9.333,-7.108C-15.045,-8.33 -17.139,-9.594 -17.139,-13.17C-17.139,-16.92 -13.781,-19.537 -8.81,-19.537C-5.321,-19.537 -2.878,-18.709 0,-16.397" style="fill:rgb(0,115,210);fill-rule:nonzero;" />
    </g>
    <g transform="matrix(4.16667,0,0,4.16667,286.566,331.365)">
      <path d="M0,-0.503C4.712,-0.506 9.396,-0.168 14.037,0.675C17.685,1.337 21.203,2.402 24.512,4.103C26.399,5.074 28.278,6.062 30.182,7.002C32.59,8.19 35.12,8.983 37.732,9.502L37.732,0.51C36.265,0.409 34.798,0.314 33.332,0.204C28.793,-0.138 24.299,-0.768 19.91,-2.023C16.818,-2.907 13.808,-4.024 10.803,-5.16C6.583,-6.756 2.278,-8.042 -2.168,-8.841C-6.892,-9.69 -11.656,-10.005 -16.449,-9.947C-21.854,-9.882 -27.233,-9.424 -32.6,-8.818L-32.6,2.763C-26.833,1.892 -21.062,1.051 -15.262,0.423C-10.189,-0.126 -5.106,-0.499 0,-0.503" style="fill:rgb(0,115,210);fill-rule:nonzero;" />
    </g>
    <g transform="matrix(4.16667,0,0,4.16667,395.113,439.861)">
      <path d="M0,-15.876C-3.993,-16.741 -8.078,-16.782 -12.152,-16.728C-16.482,-16.668 -20.794,-16.62 -25.094,-16.134C-34.955,-15.021 -44.754,-13.47 -54.555,-11.935C-55.92,-11.721 -57.286,-11.502 -58.651,-11.286L-58.651,-0.167C-58.651,-0.167 -58.675,0.231 -58.658,0.906C-56.875,0.619 -55.092,0.331 -53.308,0.045C-44.923,-1.298 -36.547,-2.691 -28.155,-3.984C-22.273,-4.89 -16.378,-5.717 -10.476,-6.479C-5.336,-7.142 -0.169,-7.517 5.021,-7.359C7.267,-7.292 9.489,-7.087 11.681,-6.705L11.681,-10.834C11.643,-10.864 7.034,-14.353 0,-15.876" style="fill:rgb(0,115,210);fill-rule:nonzero;" />
    </g>
    <g transform="matrix(4.16667,0,0,4.16667,443.784,161.069)">
      <path d="M0,13.742L0,4.073C0,4.073 -14.301,0 -35.167,0C-56.031,0 -70.332,4.073 -70.332,4.073L-70.332,7.667C-66.412,8.015 -3.879,13.413 0,13.742" style="fill:rgb(0,115,210);fill-rule:nonzero;" />
    </g>
    <g transform="matrix(4.16667,0,0,4.16667,334.025,267.974)">
      <path d="M0,-5.296C-4.814,-5.574 -9.628,-5.84 -14.423,-6.37C-18.39,-6.808 -22.312,-7.515 -26.223,-8.3C-30.228,-9.104 -34.229,-9.931 -38.245,-10.675C-40.15,-11.027 -42.067,-11.305 -43.99,-11.537L-43.99,-3.821C-43.311,-3.826 -42.633,-3.852 -41.953,-3.847C-37.963,-3.816 -33.98,-3.62 -30.015,-3.146C-26.184,-2.686 -22.442,-1.811 -18.743,-0.729C-15.337,0.267 -11.935,1.283 -8.509,2.211C-4.636,3.26 -0.681,3.9 3.303,4.368C7.661,4.88 12.037,5.15 16.412,5.434C19.727,5.65 23.041,5.896 26.343,6.241L26.343,-2.861C21.96,-3.574 17.56,-4.15 13.128,-4.469C8.755,-4.784 4.377,-5.043 0,-5.296" style="fill:rgb(0,115,210);fill-rule:nonzero;" />
    </g>
    <g transform="matrix(4.16667,0,0,4.16667,164.599,531.815)">
      <path d="M0,-11.229C0.632,-10.102 1.368,-8.964 2.259,-7.839C10.085,2.042 31.165,9.844 31.838,10.091C32.512,9.844 53.591,2.042 61.417,-7.839C65.403,-12.872 66.567,-18.175 66.894,-21.32C65.406,-21.146 0.613,-11.325 0,-11.229" style="fill:rgb(0,115,210);fill-rule:nonzero;" />
    </g>
  </g>
</svg>
